<?xml version="1.0" encoding="utf-8"?>
<!-- Generator: Adobe Illustrator 19.2.0, SVG Export Plug-In . SVG Version: 6.00 Build 0)  -->
<svg version="1.1" id="Layer_1" xmlns="http://www.w3.org/2000/svg" xmlns:xlink="http://www.w3.org/1999/xlink" x="0px" y="0px"
	 viewBox="0 0 500 500" style="enable-background:new 0 0 500 500;" xml:space="preserve">
<style type="text/css">
	.st0{fill:#132436;}
	.st1{display:none;fill:#F5841F;}
	.st2{opacity:0.25;}
	.st3{fill:#D6D6D6;}
	.st4{fill:#FF8400;}
	.st5{fill:#FFFFFF;}
</style>
<path class="st0" d="M350,18.8c0-1.1,0-18.1,0.1-18.8h-200c0,0-0.2,17.6-0.3,18.5c-8.5,68.5-61,122.3-129.6,130.8
	C5.7,150.2,0,150,0,150l0.1,200c0,0.1,17.8-0.4,18.8-0.5C197.6,339.9,340.4,197.3,350,18.8C350,18.7,350,18.7,350,18.8z"/>
<path class="st1" d="M149.8,481.5c-8.5-68.5-61-122.3-129.6-130.8C6.6,349.8,0.8,350,0.1,350v10h0.3c0.1,0,0.6,0,1.5,0
	c2.4,0,7.9,0.1,17.4,0.7c31.2,3.9,59.3,17.7,81.2,39.9c21.8,22.1,35.4,50.4,39.4,81.8c0.1,1.8,0.2,10.1,0.2,17.5h10
	C150,500,149.9,482.4,149.8,481.5z"/>
<path class="st1" d="M18.9,150.5c178.7,9.6,321.5,152.2,331.1,330.7v0.1c0,1,0,17.7,0,18.7h9.9v-18.9v-0.4
	c-4.8-88.8-42.1-172.4-105.1-235.2c-62.8-62.9-146.5-100.2-235.4-105c-1,0-15.9-0.5-18.9-0.5c-0.1,0-0.3,0-0.4,0v10
	C0.4,149.9,17.9,150.5,18.9,150.5z"/>
<g class="st2">
	<path class="st3" d="M228.1,225.3c4-4.7,8.3-9.3,12.2-14.2c10.3-13.2,20.2-26.8,28.7-41.2c10.7-18,19.7-37,26.8-56.6
		c1.3-3.2,2.2-6.5,3.9-9.5c-0.2,1.1-0.4,2.2-0.7,3.3c-6,18.4-13.9,36.1-23.1,53.1c-10.4,18.7-22.4,36.7-36.5,52.9
		c-2.3,2.7-4.4,5.5-6.9,8c-2.9,2.9-5.3,6.5-8.6,9.1C225,228.3,226.6,226.9,228.1,225.3z"/>
	<path class="st3" d="M83.7,308.5c-6.4,2.3-13,3.7-19.5,5.4c-1.4,0.4-2.8,0.6-4.3,0.7c3-1.4,6.3-1.9,9.5-2.9
		c10.1-2.9,20.1-5.9,29.9-9.7c38.1-14.4,73.5-36.1,103.5-63.8c5.2-4.3,9.6-9.4,14.5-14.1c4.5-4.1,7.9-9.3,12.7-13.1
		c-0.7,1.6-2,2.8-3.1,4.1c-4.7,5.4-9.7,10.5-14.6,15.7c-14.3,13.8-29.5,26.7-46.1,37.6C140.9,285.8,112.8,299.1,83.7,308.5z"/>
	<path class="st3" d="M236,188.9c13.6-18,25.1-37.6,34.5-58.1c0.5-1.1,1.1-2,1.8-2.9c-0.2,1.2-0.4,2.3-0.9,3.4
		c-7.2,15.8-15.6,31.1-25.4,45.4c-11.7,17.4-25.2,33.8-40.7,48C216.2,213.4,226.5,201.4,236,188.9z"/>
	<path class="st3" d="M61.6,323.3c-9.8,2.4-19.8,3.9-29.7,5.7c-4.6,0.3-9.2,1.2-13.9,0.9c2.6-0.7,5.3-0.9,8-1.3
		c11.2-1.7,22.4-3.2,33.3-5.9c15.3-3.5,30.3-8,45-13.5c2.8-1.1,5.5-2.3,8.4-3.1c-4.9,3-10.4,4.7-15.7,6.7
		C85.5,317.2,73.5,320.3,61.6,323.3z"/>
	<path class="st3" d="M121.6,275.1c-11.6,5.5-23.3,10.8-35.5,14.8c-5.6,1.8-11.1,3.9-16.8,5.4c-9.8,2.7-19.8,4.7-29.7,6.7
		c-1.4,0.3-2.9,0.3-4.3,0.2c3.3-1.5,7-1.6,10.5-2.4c18.5-3.7,36.6-9.2,54.1-16.3c32.1-12.8,61.9-31.6,87.8-54.5
		c5.3-4.3,9.9-9.5,15.4-13.7c-0.5,1.3-1.8,2-2.7,3c-8.5,8.6-17.5,16.9-27.2,24.3C157.1,255.1,139.7,265.9,121.6,275.1z"/>
	<path class="st3" d="M184,221.8c0.7-1,1.6-2,2.5-2.9c5-4.8,9.8-9.7,14.7-14.6c8.5-9.3,16.6-19,24.1-29.2c2.9-3.6,5.1-7.7,8.3-11.1
		c-1.1,2.9-3.1,5.3-4.8,7.9c-4.5,6.9-9.7,13.3-15,19.7c-2.9,3.4-5.6,6.9-8.8,10c-3.3,3.1-6,6.7-9.2,9.8c-2.4,2.5-5.1,4.6-7.6,7
		C186.9,219.7,185.6,221.2,184,221.8z"/>
	<path class="st3" d="M65.9,305.5c-5.3,1.1-10.5,3.2-16,2.5c3.3-1.5,6.8-1.7,10.2-2.7c2.2-0.6,4.4-1.6,6.6-2.3
		c5.6-1.6,11.2-3.2,16.8-4.7c5.5-2.1,11.2-3.3,16.5-5.6c6-2.3,11.9-4.7,17.6-7.5c1.4-0.8,3-1.3,4.6-1.8c-4.2,2.9-9,4.6-13.6,6.7
		C94.6,295.8,80.7,302.1,65.9,305.5z"/>
	<path class="st3" d="M288.3,109c1.5-3.5,2.1-7.3,3.1-11c2.7-10.1,5.6-20.2,7.7-30.4c2.1-10.1,3.7-20.4,4.9-30.7
		c0.6-4.1,0.9-8.2,2.4-12.1c0.2,7.1-0.6,14.2-1.5,21.2c-1.7,11.7-3.8,23.4-6.8,34.8c-2.1,8-4.3,16-7.4,23.7
		c-1.3,3.4-2.1,7.2-4.3,10.2C286.7,112.7,287.4,110.8,288.3,109z"/>
	<path class="st3" d="M209.8,181.6c12.9-16.4,24.4-33.9,33.5-52.7c4.6-8.8,8.3-18.1,12-27.4c1.4-3.3,2.1-6.9,4.1-9.9
		c-0.2,2.9-1.5,5.5-2.4,8.2c-3.6,10-7.8,19.7-12.3,29.3c-9,17.9-19.7,34.9-32.1,50.5c-2.7,3.2-5.1,6.6-8.2,9.4
		C205.6,186.2,207.9,184.1,209.8,181.6z"/>
	<path class="st3" d="M273.5,99.4c1.2-3.7,1.8-7.6,3-11.3c2.8-8.9,4.8-18,6.9-27.1c1.2-4.5,2.3-9,3-13.6c0.3-1.9,0.8-3.9,1.4-5.8
		c0.1,5.3-1.5,10.4-2,15.7c-0.5,5.4-1.7,10.7-2.6,16c-1.1,5.2-2.7,10.3-4,15.4c-1,4.3-3.4,8.2-4.9,12.4c-1.4,3.5-2.4,7.1-4.4,10.3
		C270.3,107.2,272.4,103.4,273.5,99.4z"/>
	<path class="st3" d="M102.6,256.1c-12,5.3-24.1,10.1-36.7,13.6c-2.9,0.8-5.8,1.7-8.8,2.1c4.2-1.9,8.8-2.8,13.2-4.4
		c27.9-8.9,54.4-22.3,78.2-39.4c3.9-2.6,7.4-5.7,11.4-8c-2.8,3-6.2,5.4-9.5,7.9C135.6,239.1,119.4,248.3,102.6,256.1z"/>
	<path class="st3" d="M67.4,286.8c-2.8,0.7-5.4,1.8-8.3,1.7c3.1-1.7,6.7-2.1,10-3.2c11.4-3.8,23-7.3,34-12.2
		c1.6-0.7,3.1-1.2,4.8-1.5c-2.5,1.9-5.5,2.8-8.3,4C89.1,280.1,78.3,283.9,67.4,286.8z"/>
	<path class="st3" d="M77.6,274.7c-10.1,3.3-20.3,6.4-30.7,8.5c-3.1,0.5-6.2,1.5-9.4,1.3c1.7-0.7,3.5-1.2,5.3-1.5
		c9.2-1.6,18.2-4.1,27.1-6.6c8.4-2.9,16.9-5.4,25-8.9c3.7-1.5,7.3-3.4,11.2-4.6c-1.5,1.1-3.1,2-4.8,2.7
		C93.5,269,85.6,272.2,77.6,274.7z"/>
	<path class="st3" d="M80.7,255.8c-4.3,1.5-8.4,3.3-12.8,4.4c-12.8,4.1-25.9,7.2-39.2,9.2c-1.4,0.2-2.9,0.2-4.3,0.1
		c2.9-1.2,6.1-1.3,9.1-1.9c10.7-2.1,21.4-4.6,31.8-7.9c11.1-3.1,21.7-7.5,32.2-12c12.6-5.9,25-12.4,36.6-20.2
		c2.4-1.5,4.6-3.3,7.3-4.3c-0.9,1-1.9,2-3.1,2.9C120.5,238.4,101.2,248.4,80.7,255.8z"/>
	<path class="st3" d="M234.7,127.6c7.8-14.7,13.4-30.3,18.4-46.1c2-6.6,3.6-13.4,5.2-20.1c0.8-3.1,1.2-6.3,2.3-9.3
		c0.1,3.8-1.2,7.4-1.8,11.1c-4.3,20.5-11.3,40.4-20.5,59.3c-1.6,3.1-2.7,6.4-5,9C233.5,130.1,234,128.7,234.7,127.6z"/>
	<path class="st3" d="M197.8,155.8c6.6-9.5,12.9-19.2,18.4-29.4c10.5-18.9,18.1-39.4,23.6-60.3c1-3.4,1.3-7,2.9-10.2
		c0,1.2,0,2.4-0.3,3.6c-2.2,9.4-4.7,18.7-7.8,27.8c-2.9,7.6-5.5,15.3-9,22.7c-4.9,10.9-10.7,21.6-17.1,31.8
		c-6,9.6-13.1,18.4-20.1,27.3c-2.4,2.5-4.4,5.3-7,7.5C186.8,169.7,192.8,163.1,197.8,155.8z"/>
	<path class="st3" d="M75.8,239.8c-12.3,4.4-24.8,8.4-37.7,10.9c-1.1,0.2-2.3,0.2-3.5,0.2c3.4-1.6,7.2-1.9,10.8-2.9
		c9.5-2.6,19-5.1,28.2-8.7c11-3.9,21.7-9,32.1-14.3c18.5-9.9,35.7-22.2,51.2-36.4c5.6-4.9,10.8-10.1,15.7-15.7
		c5.5-5.8,10.5-12,15.5-18.2c2.4-3.2,4.6-6.5,7.3-9.5c-0.9,1.9-2,3.7-3.3,5.4c-5,6.7-9.8,13.5-15.6,19.6c-4.8,5.9-10.5,11-15.8,16.4
		c-2.9,3.2-6.4,5.8-9.6,8.7C128.8,214.3,103.2,229.4,75.8,239.8z"/>
	<path class="st3" d="M106.3,216.5c-14.7,8-30.1,15-46.2,19.8c-3,0.8-6,2-9.2,2.2c2.9-1.5,6.1-2.1,9.2-3.1c28.7-9.5,56-23.9,79.6-43
		c5.9-4.9,11.9-9.9,17.2-15.5c4.7-4.6,9.2-9.5,14.2-13.8c-4.7,6.7-10.7,12.3-16.5,18.1c-4.3,3.7-8.5,7.6-12.9,11.1
		C130.6,201.4,118.6,209.2,106.3,216.5z"/>
	<path class="st3" d="M155.9,154c20.5-23.2,36.3-50.6,46.4-79.9c1.6-4,2-8.3,4.2-12c0,1.4-0.2,2.8-0.6,4.1
		c-1.5,5.3-3.3,10.5-5.1,15.7c-7,18.1-15.9,35.6-27.3,51.3c-3.3,5-7.3,9.4-10.9,14.1c-4.1,4.8-8.1,9.6-12.8,13.8
		C151.4,158.4,153.9,156.4,155.9,154z"/>
	<path class="st3" d="M252.7,44.2c0.4-2.2,0.8-4.4,1.6-6.5c0.5,3-0.3,5.8-0.7,8.7c-0.4,2.6-0.9,5.1-1.9,7.5
		C251.4,50.6,252.3,47.4,252.7,44.2z"/>
	<path class="st3" d="M100.9,190.9c-18.3,11-38,19.7-58.8,24.9c-5.3,1.5-10.9,1.8-16.4,2.4c2-0.7,4.1-1.2,6.2-1.8
		c5.3-1.5,10.5-3.4,16-4.2c3.2-0.6,6.1-2,9.2-2.9c29.6-9.9,56.4-26.9,79.5-47.7c2.2-2,4-4.5,6.7-5.9c-2,2.4-4.3,4.6-6.6,6.8
		c-4.7,4.3-9.3,8.7-13.9,13C115.9,181.2,108.5,186.2,100.9,190.9z"/>
	<path class="st3" d="M236.2,41.2c0.6-3.4,0.7-6.8,1.9-10.1c0.5,3.3-0.3,6.6-0.7,9.8c-0.6,3.3-0.8,6.7-2.2,9.8
		C234.7,47.5,235.8,44.4,236.2,41.2z"/>
	<path class="st3" d="M52.8,203.2c-2.4,0.7-4.8,1.6-7.3,1.6c2.4-1.4,5-2.1,7.6-2.9c14.3-4.8,28-11.1,41-18.7
		c1.5-0.9,3.1-1.7,4.8-2.4c-2.6,2.4-5.8,4-8.8,5.8C78.2,193.4,65.6,198.9,52.8,203.2z"/>
	<path class="st3" d="M162,102.2c6.8-11.8,12.3-24.4,16.7-37.3c2.5-8.3,4.7-16.7,6.4-25.2c0.7-3.3,0.9-6.7,2.2-9.8
		c0.5,3.4-0.6,6.8-1.1,10.2c-4,21-11.3,41.4-21.7,60.1c-1.6,2.9-3,6-5.5,8.3C159.6,106.3,160.8,104.3,162,102.2z"/>
	<path class="st3" d="M51.1,185.4c3.4-2.2,7.4-3.2,11.1-5c11.4-4.8,22.2-10.9,32.5-17.8c8.9-5.8,17.1-12.7,24.9-20
		c2.8-2.2,5.1-5,8-7.2c0,0.9-0.6,1.6-1.2,2.2c-20.1,20.9-45,37.2-72.2,47.1C53.2,185.1,52.1,185.3,51.1,185.4z"/>
</g>
<path class="st4" d="M173.1,289.3c0,0,0.4-0.2,0.7-0.4c0.4-0.2,0.7-0.4,0.7-0.4s-0.1,0.1-0.1,0.2c0,0-0.4,1.2-0.7,2.3
	c-0.4,1.2-0.7,2.3-0.7,2.3l-2.6,1.5c-0.3,0.2-0.6,0.5-0.8,0.9c0,0-0.1,0.3-0.3,0.7c-0.1,0.4-0.3,0.7-0.3,0.7l0,0
	c0,0-0.9,0.5-2.3,1.3c-0.7,0.4-1.5,0.8-2.4,1.3c-0.5,0.2-0.9,0.5-1.4,0.7c-0.4,0.2-0.9,0.5-1.4,0.7c-1.9,1-3.8,2-5.2,2.7
	c-0.7,0.3-1.3,0.6-1.7,0.8c-0.5,0.2-0.7,0.3-0.7,0.3h-0.1l-1.7-0.3c-0.4,0-0.9,0-1.2,0.2c0,0-0.5,0.2-1.3,0.6
	c-0.4,0.2-0.9,0.5-1.4,0.7s-1.1,0.5-1.6,0.7c-2.2,0.9-4.3,1.9-4.3,1.9s-0.3-0.1-0.8-0.3c-0.5-0.2-1.1-0.4-1.7-0.6
	c-1.2-0.5-2.4-0.9-2.4-0.9l1.5-0.6c0,0,0.7,0.3,1.4,0.5c0.6,0.3,1.3,0.5,1.3,0.5c0.4,0.1,0.9,0.1,1.3-0.1c0,0,1.8-0.9,4.5-2.1
	c1.3-0.6,2.9-1.4,4.6-2.2c0.8-0.5,1.7-0.9,2.6-1.3c0.9-0.5,1.8-0.9,2.7-1.4s1.8-1,2.7-1.4c0.4-0.3,0.9-0.5,1.3-0.7
	c0.5-0.2,0.9-0.5,1.3-0.7c1.6-0.9,3.2-1.7,4.5-2.4c1.4-0.7,2.4-1.4,3.2-1.8c0.8-0.5,1.2-0.7,1.2-0.7c0.4-0.2,0.7-0.6,0.8-1
	L173.1,289.3z"/>
<path class="st4" d="M208.9,263.5c0.5-0.4,1-0.8,1.6-1.3c0.6-0.4,1.2-0.9,1.8-1.4c1.3-1,2.6-2,3.9-3.1c1.3-1.1,2.6-2.2,3.8-3.2
	c0.6-0.5,1.1-1,1.7-1.5c0.5-0.5,1-1,1.5-1.4c1.9-1.7,3.2-2.8,3.2-2.8c0-0.1,0.1-0.1,0.2-0.1s0.1,0,0.1,0s0.1,0,0.2,0
	c0,0.1,0,0.2,0,0.3s0,0.1,0,0.1s-0.1,0.1-0.1,0.2l-1.5,1.3c-0.2,0.2-0.4,0.6-0.5,0.9l-0.3,1.6l-0.1,0.1c0,0-0.5,0.5-1.3,1.2
	s-1.9,1.6-3,2.5s-2.2,1.8-3,2.5c-0.8,0.7-1.4,1.1-1.4,1.1h-0.1H214c-0.3,0-0.7,0.2-1,0.4c0,0-0.4,0.4-1.1,0.9
	c-0.3,0.3-0.7,0.6-1.1,0.9c-0.4,0.3-0.9,0.7-1.3,1c-1.7,1.3-3.5,2.7-3.5,2.7c-0.2,0.2-0.6,0.5-0.6,0.9c0,0,0,0.2-0.1,0.5
	c0,0.3-0.1,0.8-0.2,1.3c-0.2,1.1-0.4,2.5-0.7,4c-0.3,1.4-0.6,2.9-0.8,4s-0.4,1.8-0.4,1.8c0,0.1,0,0.1,0,0.1l-2.3,1.6h-0.1l-1-0.1
	c-0.4,0-0.8,0.1-1.1,0.3c0,0-0.7,0.5-1.7,1.2c-1,0.7-2.4,1.7-3.8,2.6c-1.4,0.9-2.7,1.8-3.8,2.5s-1.8,1.1-1.8,1.1
	c-0.3,0.2-0.6,0.6-0.7,0.9l-0.4,1l-0.1,0.1l-0.4,0.3c-0.1-0.2-0.2-0.4-0.3-0.5c-0.1-0.1-0.2-0.2-0.4-0.2l0.6-0.4
	c0.3-0.2,0.6-0.6,0.7-0.9l0.5-1.2l0.1-0.1c0,0,0.7-0.4,1.7-1.1c1.1-0.7,2.4-1.6,3.8-2.5c1.3-0.9,2.7-1.8,3.7-2.5s1.7-1.2,1.7-1.2
	h0.1l1.2,0.1c0.4,0,0.8-0.1,1.1-0.3l1.4-1c0.3-0.2,0.5-0.6,0.6-1c0,0,0.1-0.6,0.3-1.5c0.1-1,0.4-2.2,0.6-3.4
	c0.5-2.4,0.9-4.8,0.9-4.8c0-0.1,0-0.1,0-0.2c0,0,0-0.1,0-0.2c0-0.2,0.2-0.7,0.3-1c0.1-0.2,0.5-0.6,0.9-0.9
	C205.5,265.7,206.8,264.7,208.9,263.5z"/>
<path class="st4" d="M222.8,266.1c0.2-0.2,0.6-0.4,1-0.8c0.8-0.7,1.9-1.7,3-2.6c1.1-0.9,2.2-1.9,3-2.6c0.9-0.7,1.4-1.2,1.4-1.2l0,0
	h1.4h0.1c0.4,0,0.9-0.3,1.1-0.5c0,0,0.3-0.3,0.7-0.7c0.4-0.4,1-0.9,1.6-1.5c1.1-1.1,2.3-2.2,2.3-2.2c0.1,0,0.2,0,0.4,0h1.5
	c0,0-1.1,1.1-2.9,2.7c-0.9,0.9-2,1.8-3.1,2.8s-2.3,2-3.5,3.1c-1.2,1.1-2.5,2.1-3.6,3.1c-0.6,0.5-1.2,1-1.7,1.4
	c-0.3,0.3-0.6,0.5-0.8,0.7s-0.5,0.4-0.7,0.6c-1.9,1.5-3.1,2.5-3.1,2.5l0.2-1.7c0-0.1,0-0.2,0-0.2l0.2-0.2c0.3-0.2,0.5-0.6,0.6-0.9
	c0-0.1,0-0.1,0-0.1l0.3-1.5c0,0.1,0,0.1,0,0C222.2,266.3,222.3,266.2,222.8,266.1z"/>
<path class="st4" d="M115.7,312.9c0.4-0.2,2.2-0.9,2.2-0.9s-0.7,1.8-0.5,2.1c0.2,0.2,1.3,0.2,1.5,0.1c0.1-0.1,0.4-0.2,0.7-0.3
	c0.6-0.2,1.4-0.6,2.2-0.9c1.6-0.6,3.2-1.3,3.2-1.3l-0.4,0.7c0,0-2,0.8-4.1,1.7c-0.5,0.2-1,0.4-1.5,0.6s-0.9,0.3-1.3,0.5
	c-0.8,0.3-1.3,0.5-1.3,0.5c-0.3,0.2-0.7,0.5-0.9,0.8l-1.8,2.9l0,0c0,0-0.4,0.1-1.1,0.4c-0.7,0.2-1.7,0.6-2.9,1
	c-1.2,0.5-2.6,1-4.1,1.5c-1.6,0.5-3.2,1.1-4.8,1.6c-0.8,0.3-1.6,0.5-2.4,0.8c-0.8,0.2-1.6,0.5-2.4,0.7c-1.5,0.5-3,0.9-4.2,1.3
	c-0.6,0.2-1.2,0.4-1.7,0.5c-0.5,0.2-0.9,0.3-1.3,0.4c-0.7,0.2-1.1,0.3-1.1,0.3l0,0l-2.8-1.3c-0.4-0.2-0.9-0.2-1.3-0.1
	c0,0-0.2,0.1-0.6,0.2c-0.4,0.1-0.9,0.3-1.4,0.4c-1,0.2-2,0.5-2,0.5c-0.5,0.1-0.9,0.5-1.1,0.8c0,0-1.1,1.7-2.2,3.5
	c-0.2,0.5-0.5,0.9-0.8,1.3c-0.2,0.4-0.5,0.8-0.7,1.1c-0.4,0.7-0.7,1.1-0.7,1.1c-0.2,0.3-0.3,0.8-0.2,1.2l0.7,3c0,0-10.9,4.4-13.7,5
	c-5.7,1.1-8.7,1.6-16.4,2.5c-0.9,0.1-3.8,0.5-4.8,0.6c-0.9,0.1-2.5,0.3-3.4,0.4c-1.9,0.2-5.4,0.5-7.2,0.7c-1.8,0.1-5.3,0.4-7,0.5
	c-1.7,0.1-13.7,0.5-13.7,0.5L0.1,350v-3.3l12-0.5l4.5-0.4c0.4,0,3.9,0,4.2-0.2l0.2-1.3l14.9-1l13.6-1.2l4.2-0.4l-0.2-2.9
	c-0.1,0,5.3-0.2,6.4-0.4c1.1-0.2,2.5-0.5,3.9-0.8c1.4-0.3,2.8-0.6,3.9-0.8c0.5-0.1,2.6-0.8,2.8-1.1c0.1,0,0.1-0.1,0.1-0.1
	s1.7-2.6,3.4-5.1c0.9-1.2,1.7-2.5,2.3-3.5s1-1.6,1-1.6s1.5-0.4,3-0.8c0.7-0.2,1.4-0.3,2-0.5c0.5-0.2,0.9-0.3,0.9-0.3l0,0l2.5,1.1
	c0.3,0.2,0.8,0.2,1.2,0.1c0,0,0.4-0.1,1.1-0.3c0.7-0.2,1.8-0.5,3-0.9c1.2-0.4,2.7-0.8,4.2-1.3c0.8-0.2,1.6-0.4,2.4-0.7
	c0.8-0.3,1.6-0.5,2.4-0.8c1.6-0.5,3.3-1.1,4.8-1.6c1.6-0.6,3-1.1,4.2-1.5c1.2-0.5,2.2-0.8,2.9-1.1c0.7-0.2,1.1-0.4,1.1-0.4
	c0.3-0.2,0.7-0.5,0.9-0.8l1.4-2.2C115.3,313.4,115.3,313.1,115.7,312.9z"/>
<path class="st4" d="M141.2,318.5c-0.6,0.2-1.3,0.5-2,0.8c-0.7,0.4-1.5,0.7-2.3,1c-3.1,1.2-6.3,2.5-6.3,2.5s0.7-1.4,1.4-2.9
	c0.7-1.4,1.4-2.9,1.4-2.9s0.9-0.3,1.8-0.7c0.9-0.3,1.8-0.7,1.8-0.7s1.5,0.5,3,1.1c1.6,0.6,3.1,1.1,3.1,1.1S142.3,318.2,141.2,318.5z
	 M137.1,316.1c0,0-0.2,0.1-0.5,0.2c-0.3,0.2-0.7,0.3-1.1,0.5c-0.9,0.4-1.7,0.7-1.7,0.7c-0.3,0.1-0.5,0.5-0.4,0.9
	c0.2,0.4,0.6,0.6,1,0.4c0,0,0.9-0.4,1.7-0.7c0.4-0.2,0.8-0.4,1.1-0.5c0.3-0.1,0.5-0.2,0.5-0.2c0.4-0.1,0.5-0.5,0.4-0.9
	C137.9,316.1,137.5,316,137.1,316.1z"/>
<path class="st4" d="M290.1,171.6c0,0-0.2,0.4-0.4,0.7c-0.2,0.4-0.4,0.7-0.4,0.7s0.1-0.1,0.2-0.1c0,0,1.2-0.4,2.3-0.7
	c1.2-0.4,2.3-0.7,2.3-0.7l1.5-2.6c0.2-0.3,0.5-0.6,0.9-0.8c0,0,0.4-0.1,0.7-0.3c0.4-0.1,0.7-0.3,0.7-0.3l0,0c0,0,0.5-0.9,1.3-2.3
	c0.7-1.4,1.8-3.3,2.7-5.2c1-1.9,2-3.8,2.7-5.2s1.2-2.4,1.2-2.4v-0.1l-0.3-1.7c0-0.4,0-0.9,0.2-1.2c0,0,0.2-0.5,0.6-1.3
	c0.4-0.7,0.9-1.8,1.4-2.9c0.9-2.2,1.9-4.3,1.9-4.3s-0.1-0.3-0.3-0.8s-0.4-1.1-0.6-1.7c-0.5-1.2-0.9-2.4-0.9-2.4l-0.6,1.5
	c0,0,0.3,0.7,0.5,1.4c0.3,0.7,0.5,1.4,0.5,1.4c0.1,0.4,0.1,0.9-0.1,1.3c0,0-0.9,1.8-2.1,4.5c-0.3,0.7-0.6,1.4-1,2.2
	c-0.4,0.7-0.8,1.6-1.2,2.4c-0.5,0.8-0.9,1.7-1.3,2.6c-0.4,0.9-0.9,1.8-1.3,2.7c-0.9,1.8-1.8,3.5-2.7,5.2c-0.9,1.6-1.7,3.2-2.4,4.5
	c-0.4,0.7-0.7,1.3-1,1.8c-0.3,0.6-0.6,1-0.8,1.4c-0.5,0.8-0.7,1.2-0.7,1.2c-0.2,0.4-0.6,0.7-1,0.8L290.1,171.6z"/>
<path class="st4" d="M264.5,207.5c-0.4,0.5-0.9,1-1.3,1.6c-0.4,0.6-0.9,1.2-1.4,1.8c-1,1.3-2,2.6-3.1,3.9s-2.2,2.6-3.2,3.8
	c-1,1.2-1.9,2.4-2.8,3.3c-1.7,1.9-2.8,3.2-2.8,3.2c-0.1,0-0.1,0.1-0.1,0.2s0,0.1,0,0.1s0,0.1,0,0.2c0.1,0,0.2,0,0.3,0s0.1,0,0.1,0
	s0.1-0.1,0.2-0.1l1.3-1.5c0.2-0.2,0.6-0.4,0.9-0.5l1.6-0.3l0.1-0.1c0,0,0.1-0.2,0.3-0.4c0.2-0.3,0.5-0.6,0.8-1
	c0.7-0.8,1.6-1.9,2.5-3s1.8-2.2,2.5-3s1.1-1.4,1.1-1.4v-0.1v-1.6c0-0.3,0.2-0.7,0.4-1c0,0,0.4-0.4,0.9-1.1c0.5-0.6,1.2-1.5,1.9-2.4
	c1.3-1.7,2.7-3.5,2.7-3.5c0.2-0.2,0.5-0.6,0.9-0.6c0,0,0.7-0.1,1.8-0.3s2.5-0.4,4-0.7c1.4-0.3,2.9-0.6,4-0.8
	c1.1-0.3,1.8-0.4,1.8-0.4c0.1,0,0.1,0,0.1,0l1.6-2.3v-0.1l-0.1-1c0-0.4,0.1-0.8,0.3-1.1c0,0,0.1-0.2,0.3-0.5
	c0.2-0.3,0.6-0.7,0.9-1.2c0.7-1,1.7-2.4,2.6-3.8c0.5-0.7,1-1.3,1.4-2c0.5-0.6,0.9-1.3,1.2-1.8c0.7-1.1,1.1-1.8,1.1-1.8
	c0.2-0.3,0.6-0.6,0.9-0.7l1-0.4l0.1-0.1l0.3-0.4c-0.2-0.1-0.4-0.2-0.5-0.3s-0.2-0.2-0.2-0.4l-0.4,0.6c-0.2,0.3-0.6,0.6-0.9,0.7
	l-1.2,0.5l-0.1,0.1c0,0-0.4,0.7-1.1,1.7c-0.3,0.5-0.7,1.2-1.1,1.8s-0.8,1.3-1.3,2c-0.9,1.3-1.8,2.7-2.5,3.7
	c-0.3,0.5-0.6,0.9-0.8,1.2c-0.2,0.3-0.3,0.5-0.3,0.5v0.1l0.1,1.2c0,0.4-0.1,0.8-0.3,1.1l-1,1.4c-0.2,0.3-0.6,0.5-1,0.6
	c0,0-0.6,0.1-1.5,0.3c-1,0.1-2.2,0.4-3.4,0.6c-2.4,0.5-4.8,0.9-4.8,0.9c-0.1,0-0.1,0-0.2,0c0,0-0.1,0-0.2,0c-0.2,0-0.7,0.2-1,0.3
	c-0.2,0.1-0.6,0.5-0.9,0.9C267,204.1,265.9,205.5,264.5,207.5z"/>
<path class="st4" d="M266.6,222.3c-0.7,0.8-1.7,1.9-2.6,3s-1.9,2.2-2.6,3c-0.7,0.9-1.2,1.4-1.2,1.4l0,0v1.4v0.1
	c0,0.4-0.3,0.9-0.5,1.1c0,0-1,1.2-2.1,2.4c-1.1,1.1-2.2,2.3-2.2,2.3c0,0.1,0,0.2,0,0.4v1.5c0,0,1.1-1.1,2.7-2.9
	c0.9-0.9,1.8-2,2.8-3.1s2-2.3,3.1-3.5s2.1-2.5,3.1-3.6c0.5-0.6,1-1.2,1.4-1.7c0.4-0.5,0.8-1,1.2-1.5c1.5-1.9,2.5-3.1,2.5-3.1
	l-1.7,0.2c-0.1,0-0.2,0-0.2,0l-0.2,0.2c-0.2,0.3-0.6,0.5-0.9,0.6c-0.1,0-0.1,0-0.1,0l-1.5,0.3c0.1,0,0,0,0,0
	S267.1,221.4,266.6,222.3z"/>
<path class="st4" d="M319.4,110.2c-0.2,0.3-0.8,2.2-0.8,2.2l0.9-0.6c0.5-0.3,0.9-0.2,1.2,0s0.5,0.6,0.3,1.2c0,0-0.2,0.4-0.4,1
	c-0.2,0.7-0.5,1.5-0.8,2.3c-0.6,1.7-1.2,3.3-1.2,3.3l0.7-0.4c0,0,0.7-2.1,1.5-4.2c0.4-1.1,0.7-2.1,1-2.9s0.5-1.3,0.5-1.3
	c0.1-0.4,0.4-0.8,0.7-1l2.8-1.9l0,0c0,0,0.2-0.4,0.4-1.1c0.2-0.8,0.5-1.8,0.9-3s0.8-2.7,1.3-4.2c0.4-1.5,0.9-3.2,1.4-4.8
	c0.2-0.8,0.5-1.6,0.7-2.4s0.4-1.6,0.6-2.4c0.4-1.5,0.8-3,1.1-4.2c0-0.3,0.1-0.6,0.2-0.9s0.1-0.5,0.2-0.8c0.1-0.5,0.2-0.9,0.3-1.3
	c0.2-0.7,0.3-1.1,0.3-1.1l0,0l-1.4-2.8c-0.1-0.4-0.2-0.9-0.1-1.3c0,0,0.3-1,0.5-2c0.2-1.1,0.4-2.1,0.4-2.1c0.1-0.4,0.4-0.9,0.7-1.1
	c0,0,1.7-1.2,3.4-2.4c0.8-0.6,1.7-1.2,2.3-1.7s1-0.8,1-0.8c0.3-0.3,0.8-0.4,1.2-0.3l2.5,0.8c0,0,1.4-4.9,1.5-5.3
	c0.1-0.5,1.9-11.9,2.1-13.5c0.1-0.8,0.2-1.6,0.3-2.5c0.1-0.8,0.2-1.7,0.3-2.6c0.2-1.8,0.4-3.6,0.6-5.5c0.2-1.9,0.3-3.8,0.5-5.7
	c0-1,0.1-1.9,0.2-2.9s0.1-2,0.2-2.9c0.1-1.9,0.2-3.8,0.3-5.6s0.1-3.6,0.2-5.3c0-0.8,0.1-1.6,0.1-2.4c0-0.8-0.2-2-0.2-2.7
	c0-5.8,0-9,0-9l0.1-2.1h-2.2l-2.2,2.4l0.1,7.8c0,0.4-0.2,0.9-0.4,1.2c0,0-0.6,0.8-1.2,1.6c-0.1,0.2-0.3,0.4-0.4,0.6
	s-0.3,0.3-0.4,0.5c-0.2,0.3-0.4,0.5-0.4,0.5l0,0c0,0-0.1,1.9-0.2,4.6c0,0.7-0.1,1.4-0.1,2.2c-0.1,0.8-0.1,1.6-0.2,2.5
	c-0.1,1.8-0.2,3.6-0.3,5.4c-0.2,1.8-0.4,3.6-0.5,5.3s-0.2,3.3-0.4,4.7c-0.3,2.7-0.5,4.5-0.5,4.5l0,0c0,0,0.5,0.7,0.9,1.4
	c0.5,0.7,0.9,1.4,0.9,1.4c0.1-0.1,0.1-0.2,0.2-0.3c-0.1-0.3-0.1-0.6-0.1-0.9l0.1,5.8c0,0-0.1,0.7-0.2,1.8s-0.4,2.5-0.6,3.9
	s-0.4,2.8-0.6,3.9c-0.1,0.5-0.1,1-0.2,1.3s-0.1,0.5-0.1,0.5c-0.2,0.7-0.4,0.9-0.7,1.1c0,0.1-0.1,0.1-0.1,0.1s-2.4,1.8-4.9,3.6
	c-0.6,0.4-1.2,0.9-1.8,1.3s-1.1,0.8-1.6,1.1c-1,0.7-1.6,1.1-1.6,1.1s-0.3,1.5-0.6,3c-0.1,0.8-0.3,1.5-0.4,2.1
	c-0.1,0.5-0.2,0.9-0.2,0.9l0,0l1,2.3c0.1,0.3,0.2,0.8,0.1,1.2c0,0-0.1,0.5-0.3,1.2c-0.1,0.3-0.2,0.8-0.3,1.3s-0.2,1.1-0.4,1.7
	c-0.3,1.3-0.7,2.7-1.1,4.3c-0.2,0.8-0.4,1.6-0.6,2.4s-0.5,1.7-0.7,2.5c-0.5,1.7-1,3.4-1.4,4.9c-0.5,1.5-0.9,3-1.3,4.2
	c-0.3,1.3-0.7,2.3-0.9,3c-0.1,0.3-0.2,0.6-0.3,0.8c-0.1,0.2-0.1,0.3-0.1,0.3c-0.1,0.4-0.4,0.8-0.7,1l-2.2,1.4
	C319.8,109.4,319.5,109.6,319.4,110.2z"/>
<path class="st4" d="M324,129.5c-0.2,0.3-0.4,0.8-0.6,1.4c-0.4,1.1-1.1,2.7-1.7,4.3c-0.6,1.6-1.3,3.1-1.8,4.3s-0.8,2-0.8,2
	s-0.6-1.6-1.1-3.1s-1.1-3-1.1-3s0.1-0.3,0.2-0.6c0.1-0.3,0.3-0.7,0.5-1.2c0.3-0.9,0.7-1.8,0.7-1.8s1.4-0.7,2.9-1.4
	c0.7-0.4,1.4-0.7,2-1c0.3-0.1,0.5-0.2,0.7-0.3c0.1-0.1,0.2-0.1,0.2-0.1S324,129.2,324,129.5z M317.7,136.6c0.3,0.2,0.7,0,0.9-0.4
	c0,0,0.1-0.2,0.2-0.5c0.2-0.3,0.3-0.7,0.5-1.1c0.4-0.9,0.7-1.7,0.7-1.7c0.1-0.3,0-0.8-0.4-0.9c-0.3-0.2-0.7,0-0.9,0.4
	c0,0-0.4,0.9-0.7,1.7c-0.2,0.4-0.4,0.8-0.5,1.1s-0.2,0.5-0.2,0.5C317.1,136.1,317.3,136.5,317.7,136.6z"/>
<g id="BOTTOM_HEXAGON_KNOCK_OUT_1_">
	<polygon class="st5" points="122.2,106.5 121.4,104.1 119,103.6 118.1,104.7 118.1,104.7 120.5,105.2 121.3,107.5 	"/>
	<polygon class="st5" points="104.7,117.9 105.2,120.3 107.6,121.2 108.6,120.2 108.6,120.2 106.3,119.4 105.8,117 	"/>
	<path class="st5" d="M114.3,118.8l-1.9,2c0,0-0.3-0.1-0.8-0.3c-0.6-0.2-1.2-0.4-1.9-0.6c-1.4-0.5-2.7-0.9-2.7-0.9s-0.3-1.3-0.6-2.7
		c-0.1-0.7-0.3-1.4-0.4-1.9c-0.1-0.6-0.2-0.9-0.2-0.9l1.7-1.7l0,0c0,0,0.4,1.3,0.7,2.7c0.4,1.3,0.7,2.7,0.7,2.7s1.4,0.4,2.7,0.8
		C112.9,118.4,114.3,118.8,114.3,118.8L114.3,118.8z"/>
	<path class="st5" d="M119.9,113.1l1.7-1.9c0,0-0.3-1.3-0.8-2.7c-0.4-1.4-0.9-2.7-0.9-2.7s-1.3-0.3-2.7-0.6
		c-1.3-0.2-2.7-0.6-2.7-0.6l-1.7,1.7l0,0c0,0,1.3,0.4,2.7,0.7c1.4,0.4,2.8,0.7,2.8,0.7s0.4,1.4,0.8,2.7
		C119.5,111.7,119.9,113.1,119.9,113.1L119.9,113.1z"/>
	<path class="st5" d="M112.1,107.1L112.1,107.1l2.7,0.7l2.7,0.7l0,0l0.8,2.7l0.8,2.7l-1.4,1.5h-0.1v-0.1l1.3-1.4l-0.8-2.6l-0.8-2.6
		l-2.7-0.7l-2.6-0.7l-1.2,1.3h-0.1v-0.1L112.1,107.1z"/>
	<path class="st5" d="M108.2,111l1.5-1.4h0.1v0.1l-1.4,1.3l0.7,2.6l0.7,2.7l2.6,0.8l2.6,0.8l1.4-1.5h0.1v0.1L115,118l0,0l-2.7-0.8
		l-2.7-0.8l0,0l-0.7-2.7L108.2,111z"/>
	<path class="st5" d="M117.5,111.5c-0.4-1.2-0.7-2.3-0.7-2.3s-1.1-0.3-2.3-0.6c-1.1-0.3-2.3-0.6-2.3-0.6s-0.8,0.9-1.6,1.7
		c-0.9,0.8-1.7,1.6-1.7,1.6s0.3,1.1,0.6,2.3c0.3,1.1,0.6,2.3,0.6,2.3s1.2,0.4,2.3,0.7c1.1,0.4,2.3,0.7,2.3,0.7s0.9-0.9,1.8-1.7
		c0.9-0.9,1.7-1.8,1.7-1.8S117.9,112.7,117.5,111.5z M112.5,116.1c-1-0.3-2-0.6-2-0.6s-0.3-1-0.5-2s-0.5-2-0.5-2s0.7-0.7,1.4-1.4
		c0.7-0.7,1.4-1.4,1.4-1.4s1,0.2,2,0.5s2,0.5,2,0.5s0.3,1,0.6,2c0.3,1,0.6,2,0.6,2s-0.7,0.8-1.4,1.5c-0.8,0.7-1.5,1.4-1.5,1.4
		S113.6,116.3,112.5,116.1z"/>
</g>
<g id="TOP_HEXAGON_KNOCK_OUT">
	<g>
		<path class="st5" d="M240.1,235.9l2.8,0.6l2.9,0.6l0.7,2.8l0.7,2.8l-1.5,1.6h-0.1v-0.1l1.4-1.5l-0.6-2.7l-0.7-2.7l-2.7-0.6
			l-2.7-0.6l-1.4,1.4h-0.1v-0.1L240.1,235.9z"/>
		<path class="st5" d="M236,240.2l1.6-1.6h0.1v0.1l-1.5,1.5l0.6,2.7l0.6,2.7l2.7,0.7l2.7,0.6l1.6-1.5h0.1c0,0.1,0,0.1,0,0.1
			c0,0.1,0,0.1,0,0.1l-1.7,1.6l-2.8-0.7l-2.8-0.7l-0.6-2.8L236,240.2z"/>
		<path class="st5" d="M242.9,237.2c-1.2-0.2-2.4-0.5-2.4-0.5s-0.9,0.9-1.8,1.8c-0.9,0.9-1.8,1.8-1.8,1.8s0.2,1.2,0.5,2.4
			c0.2,1.2,0.5,2.4,0.5,2.4s1.2,0.3,2.4,0.6s2.4,0.6,2.4,0.6s1-0.9,1.9-1.8c0.9-1,1.8-1.9,1.8-1.9s-0.3-1.2-0.6-2.4
			c-0.3-1.2-0.6-2.4-0.6-2.4S244,237.6,242.9,237.2z M237.5,240.6c0,0,0.8-0.7,1.6-1.5c0.7-0.8,1.5-1.6,1.5-1.6l4.1,0.9l1,4.1
			c0,0-0.8,0.8-1.6,1.6s-1.6,1.6-1.6,1.6l-4.1-1L237.5,240.6z"/>
	</g>
	<g>
		<polygon class="st5" points="232.1,247.7 232.6,250.3 235.1,250.9 236.2,249.9 236.2,249.8 233.8,249.2 233.3,246.7 		"/>
	</g>
	<g>
		<polygon class="st5" points="251.1,234.9 250.5,232.4 247.9,231.9 246.9,233 246.9,233 249.4,233.5 250.1,236 		"/>
	</g>
	<g>
		<path class="st5" d="M241.1,235.1l1.9-2c0,0,0.4,0.1,0.9,0.2s1.2,0.3,1.9,0.4c1.4,0.3,2.8,0.6,2.8,0.6s0.3,1.4,0.7,2.8
			c0.2,0.7,0.4,1.4,0.5,1.9c0.1,0.5,0.2,0.9,0.2,0.9l-1.9,2l0,0c0,0-0.4-1.4-0.7-2.8c-0.4-1.4-0.7-2.8-0.7-2.8s-1.4-0.3-2.8-0.6
			C242.5,235.4,241.1,235.1,241.1,235.1L241.1,235.1z"/>
	</g>
	<g>
		<path class="st5" d="M235.2,241l-2,1.9c0,0,0.1,0.4,0.2,0.9c0.1,0.5,0.3,1.2,0.4,1.9c0.3,1.4,0.6,2.8,0.6,2.8s1.4,0.3,2.8,0.7
			c0.7,0.2,1.4,0.4,1.9,0.5c0.5,0.1,0.9,0.2,0.9,0.2l2-1.9l0,0c0,0-1.4-0.4-2.8-0.7c-1.4-0.4-2.8-0.7-2.8-0.7s-0.3-1.4-0.6-2.8
			S235.2,241,235.2,241L235.2,241z"/>
	</g>
</g>
<g>
	<g>
		<path class="st4" d="M0.1,150l12.3-0.3l3-0.1l2.9-0.2c0.2-0.1,8.9-1.1,10.7-1.5l4-0.8c0.5-0.1,1.2-0.3,1.7-0.4l8.2-2.1
			c0.7-0.2,1.5-0.4,2.1-0.6c1-0.3,1.7-0.5,2.4-0.7l1.7-0.5l4.6-1.6l3.3-1.3c0,0,2.9-1.1,3-1.2l2.2-0.9l1.4,2.9
			c0.2,0.4,0.5,0.8,0.9,0.9l0.5,0.2c0.7,0.3,2,0.7,3.3,1.2c1,0.4,2,0.7,2.7,0.9l1.3,0.4c0.4,0.1,0.9,0.1,1.3-0.1l3.6-1.9
			c0.1-0.1,0.3-0.2,0.4-0.3s0.3-0.3,0.4-0.6c0,0,0.1-0.2,0.2-0.5l0.3-1l0.4-1.5l2.5-1.5l0,0c0,0,0.7,0.1,0.8,0.1
			c0.3,0,0.6,0.1,0.9,0.1l1.7,0.2c0.4,0,0.9-0.1,1.2-0.3l4-2.7c0.3-0.2,0.6-0.4,0.9-0.6l1.5-1.1c0.6-0.4,1.2-0.8,1.7-1.2
			c1-0.7,1.9-1.4,2.7-2l1.9-1.5l0.8,0.1l-2.4,1.9c-0.5,0.4-1,0.7-1.5,1.1c-0.3,0.2-0.6,0.4-0.9,0.6l-4,2.9l-0.5,0.3l-2.1,1.4
			c-0.1,0.1-0.1,0.1-0.2,0.2c-0.2,0.2-0.3,0.6-0.2,1c0.1,0.3,0.5,0.6,0.9,0.6h0.1c0.1,0,0.2,0,0.3,0c0.2,0,0.3,0.1,0.5,0.1l0,0
			l-1.1,0.7l0,0l0,0l-2.9-0.3c-0.4,0-0.8,0.1-1.1,0.3l-4.1,2.4c-0.1,0.1-0.2,0.2-0.3,0.3s-0.3,0.4-0.4,0.7l-0.5,1.3l-0.3,0.9
			l-0.1,0.4l0,0l-5.5,2.9c0,0-0.2,0-0.4-0.1l-1.3-0.5c-1.3-0.4-2.7-0.9-4-1.4c-1.3-0.4-2.7-0.9-3.9-1.4c-0.3-0.2-0.6-0.3-0.9-0.4
			c-0.1,0-0.2-0.1-0.3-0.1l-0.5-0.2c-0.2-0.1-0.7-0.3-1.3-0.1c-0.1,0-1.5,0.6-3.6,1.5c-0.2,0-0.4,0.1-0.6,0.2
			c-0.4,0.1-0.7,0.3-1.1,0.4l-1.9,0.7l-4.7,1.7l-0.5,0.2l-6.4,2c0,0-26.8,5.3-27.1,5.3c-0.5,0.1-1,0.2-1.4,0.2l-1,0.1l-1.2-1
			l-1.2-1.1C9.9,153.7,0.1,150.1,0.1,150z M20.8,155.7c0,0,15.6-3.2,15.6-3.3c0,0-1.8,2.6-1.8,2.7l0,0l-11,2.2l0,0
			C23.6,157.3,21.1,155.9,20.8,155.7L20.8,155.7z"/>
		<path class="st4" d="M149.9,0.1h2.6l1.2,13l1.4,0.9l-1.1,4.5c-0.3-0.1-4.5,22.8-4.5,22.8s-0.3,1.2-0.3,1.3c0,0.2-0.1,0.3-0.1,0.5
			l-0.9,2.8c-0.2,0.5-0.3,1-0.5,1.5c-0.3,0.9-0.6,1.8-0.9,2.7l-2.4,6.5l-2,4.8c-0.2,0.6,0,1.1,0.1,1.3l0.7,1.7
			c0.4,1,0.9,2.3,1.5,3.9c0.9,2.6,1.8,5.3,2,5.8l-2.9,5.5l0,0l0,0l-0.4,0.1c-0.2,0.1-0.4,0.1-0.6,0.2l-1.6,0.6
			c-0.3,0.1-0.6,0.3-0.7,0.4c-0.1,0.1-0.2,0.2-0.3,0.3l-2.4,4.1c-0.1,0.3-0.2,0.7-0.2,1.1l0.3,2.9v0.1l-0.7,1.1l0,0
			c0-0.2,0-0.4-0.1-0.5c0-0.1,0-0.2,0-0.3v-0.1c0-0.4-0.2-0.8-0.6-0.9c-0.3-0.2-0.7-0.1-1,0.2c-0.1,0.1-0.2,0.1-0.2,0.2l-1.4,2.1
			c-0.4,0.5-0.8,1.1-1.3,1.8l-3.6,5l-1.9,2.4l-0.1-0.8l1.5-1.9l3.1-4.4c0.9-1.3,1.8-2.6,2.5-3.7c0.2-0.3,0.3-0.5,0.5-0.8l1.3-2
			c0.2-0.3,0.3-0.8,0.3-1.2c0,0-0.1-0.7-0.1-0.8c0-0.2-0.1-0.5-0.1-0.8l-0.3-1.6l0,0l1.5-2.5l1.5-0.5l0.3-0.1
			c0.3-0.1,0.5-0.1,0.7-0.2l0.5-0.2c0.4-0.1,0.6-0.3,0.7-0.4s0.2-0.3,0.3-0.4l1.9-3.6c0.2-0.4,0.2-0.9,0.1-1.3l-0.4-1.2l-0.1-0.3
			c-0.1-0.2-0.2-0.6-0.3-0.9l-0.5-1.4c-0.7-2-1.4-3.9-1.4-3.9c-0.2-0.4-0.5-0.7-0.9-0.9l-2.5-1.2l1-2.6c0.1-0.1,0.9-1.9,1-2.1
			l0.5-1.1c0.2-0.3,0.6-1.6,0.7-1.9c0.3-0.7,1.1-2.5,1.4-3.4l1-2.8l1.6-5.1l1.1-3.8l0.9-3.3l0.6-2l0.7-3.7l1.5-8.2
			c0.9-4.4,0.8-11.8,0.8-11.8C150,11.5,150.1,0,149.9,0.1z M154.7,21.7l1.6,2.7l0,0l-2.1,11l-2.7,1.9
			C151.5,37.2,154.7,21.6,154.7,21.7z"/>
		<path class="st4" d="M87,123.7l3.2-2.3c0.3-0.2,0.6-0.4,0.8-0.6c0.1-0.1,0.3-0.2,0.4-0.3l5.8-4.6l-0.9,7.5c0,0,0,0.1-0.1,0.2
			l-2.5,2l-0.5,0.3c0,0.1-0.1,0.1-0.2,0.1s-2.1-0.3-4.1-0.7c-1.3-0.2-2.5-0.4-3.3-0.6L87,123.7z M93.4,124.6L93.4,124.6
			c0.3,0,0.5-0.1,0.7-0.2l0.3-0.2c0.1-0.1,0.1-0.1,0.1-0.1c0.1-0.2,0.2-0.4,0.2-0.6h0.1c0.2,0,0.4-0.1,0.6-0.2l0.3-0.2
			c0.1-0.1,0.1-0.1,0.1-0.1c0.3-0.3,0.3-0.7,0.1-1l-0.2-0.3c-0.1-0.2-0.3-0.3-0.5-0.3s-0.4,0.1-0.6,0.2l-0.3,0.2
			c-0.1,0.1-0.1,0.1-0.1,0.1l0,0c-0.1,0.2-0.2,0.4-0.2,0.6h-0.1c-0.2,0-0.4,0.1-0.6,0.2l-0.3,0.2c-0.1,0.1-0.1,0.1-0.1,0.1l0,0
			c-0.1,0.2-0.2,0.4-0.2,0.6c-0.3-0.1-0.5,0-0.7,0.1l-0.3,0.2l-0.1,0.1l0,0c-0.3,0.3-0.3,0.7-0.1,1l0.2,0.3c0.3,0.4,0.8,0.4,1.1,0.2
			l0.4-0.3c-0.1,0,0,0,0,0C93.3,125,93.4,124.8,93.4,124.6z"/>
		<path class="st4" d="M124,86.4c0.1,0.8,0.4,2,0.6,3.3c0.4,1.9,0.7,4,0.7,4c0.1,0,0,0.2,0,0.2l-0.4,0.5c-0.1,0.2-0.3,0.4-0.5,0.7
			l-1.4,1.8c-0.1,0-0.2,0.1-0.2,0.1c-0.1,0-2.1,0.2-4.1,0.4l-1.5,0.1l-1.3,0.1h-0.5l0,0c0.2-0.4,0.6-0.8,1-1.3l3.3-4.2
			c0.4-0.5,0.8-1.1,1.2-1.6c0.2-0.3,0.3-0.5,0.5-0.7L124,86.4z M122.2,93.7c-0.1,0.1-0.1,0.1-0.1,0.1l-0.2,0.3
			c-0.2,0.2-0.2,0.4-0.2,0.6v0.1c-0.2,0-0.4,0-0.6,0.2c-0.1,0.1-0.1,0.1-0.1,0.1l-0.2,0.3c-0.2,0.2-0.2,0.4-0.2,0.6s0.1,0.4,0.3,0.5
			l0.3,0.2c0.3,0.2,0.7,0.2,1-0.1c0.1-0.1,0.1-0.1,0.1-0.1l0.2-0.3c0.2-0.2,0.2-0.4,0.2-0.6v-0.1c0.2,0,0.4,0,0.6-0.2
			c0.1-0.1,0.1-0.1,0.1-0.1l0.2-0.3c0.2-0.2,0.2-0.4,0.2-0.6v-0.1c0.2,0,0.4-0.1,0.5-0.2l0.1-0.1l0.2-0.3c0.2-0.4,0.1-0.8-0.2-1.1
			l-0.3-0.2c-0.3-0.2-0.7-0.2-1,0.1c-0.1,0-0.1,0.1-0.1,0.1l-0.2,0.3c-0.1,0.2-0.2,0.5-0.1,0.7C122.5,93.5,122.3,93.6,122.2,93.7z"
			/>
	</g>
</g>
</svg>
