<?xml version="1.0" encoding="utf-8"?>
<!-- Generator: Adobe Illustrator 19.2.0, SVG Export Plug-In . SVG Version: 6.00 Build 0)  -->
<svg version="1.1" id="Layer_1" xmlns="http://www.w3.org/2000/svg" xmlns:xlink="http://www.w3.org/1999/xlink" x="0px" y="0px"
	 viewBox="0 0 500 500" style="enable-background:new 0 0 500 500;" xml:space="preserve">
<style type="text/css">
	.st0{fill:#142436;}
	.st1{opacity:0.3;}
	.st2{fill:#FFFFFF;}
	.st3{fill:#FF8300;}
</style>
<rect x="-0.3" y="149.3" class="st0" width="500" height="200"/>
<g class="st1">
	<path class="st2" d="M474.1,318.1c-5.4,0.5-10.9,0.4-16.3,0.6c-9.5,0.4-19,0.2-28.5,0.2c-19.2,0-38.5,0-57.7,0
		c-11-0.1-22,0.1-33-0.2c-4.6-0.1-9.2-0.2-13.7-0.2c-2.6-0.1-5.3-0.1-7.9-0.5c3.4-0.9,6.9-0.7,10.3-0.8c5.2-0.6,10.5-0.2,15.8-0.3
		c1.8-0.1,3.6-0.3,5.5-0.3c30.9,0,61.8,0,92.7,0c3.7,0,7.3,0,11,0c2.4,0.1,4.7,0.4,7,0.4c4.3,0.4,8.6,0.1,12.8,0.7
		C472.9,317.7,473.5,317.9,474.1,318.1z"/>
	<path class="st2" d="M199.9,318.1c-1.3,0.4-2.7,0.5-4.1,0.4c-25.6,0.2-51.3,0.1-76.9,0.1c-21.5,0-43,0-64.6-0.1
		c-2.4-0.1-4.8,0.3-7.2-0.4c4.2-0.6,8.4-0.6,12.7-0.6c2.8,0.1,5.5-0.4,8.2-0.4c39.5,0,79,0,118.5,0
		C191,317.6,195.4,317.4,199.9,318.1z"/>
	<path class="st2" d="M169.4,309.8c-4.7,0.8-9.5,0.4-14.2,0.5c-29.9,0-59.7,0-89.6,0c-3.6-0.1-7.2,0.1-10.8-0.1
		c-3.5-0.4-7-0.2-10.5-0.2c-6.5,0-13.1,0-19.6,0c-2.8,0-5.5,0.2-8.3-0.3c3.3-0.6,6.7-0.3,10-0.4c37,0,74,0,110.9,0
		c9.4,0,18.8,0,28.1,0C166.9,309.3,168.1,309.6,169.4,309.8z"/>
	<path class="st2" d="M235.8,301.3c-1.9,0.9-4,0.7-6,0.7c-54,0-108.1,0-162.1,0c-2.4-0.1-4.9,0.3-7.1-0.7c3.7-0.7,7.5-0.6,11.3-0.6
		c47.1,0,94.1,0,141.2,0C220.6,300.7,228.2,300.5,235.8,301.3z"/>
	<path class="st2" d="M475.2,293.5c-4.3,0.4-8.6,0.2-12.9,0.3c-29.4,0-58.9,0-88.3,0c-4.5-0.4-8.9-0.4-13.4-0.3
		c-1.1,0.1-2.3-0.1-3.4-0.4c4.6-0.8,9.3-0.5,14-0.7c4-0.4,8-0.2,12.1-0.2c28.2,0,56.3,0,84.5,0c4.3,0.4,8.7,0.4,13.1,0.3
		c1.5-0.1,3,0.2,4.3,0.8C481.9,293.7,478.5,293.3,475.2,293.5z"/>
	<path class="st2" d="M398.8,284.7c-2,0.6-4.1,0.5-6.2,0.5c-37.8,0-75.6,0-113.3,0c-30.1,0-60.2,0.1-90.3-0.1
		c-1.9,0-3.8,0.1-5.6-0.5c2.1-1,4.4-0.8,6.6-0.9c68.2,0,136.5,0,204.7,0C396.1,283.8,397.5,284.2,398.8,284.7z"/>
	<path class="st2" d="M422,268.1c-1.4,0.2-2.9,0.3-4.4,0.3c-28,0.2-56.1,0-84.1,0.1c-1.1,0-2.2-0.1-3.2-0.5c3.2-0.6,6.4-1.1,9.7-0.9
		c25.5,0,51.1,0,76.6,0C418.5,267,420.4,267.2,422,268.1z"/>
	<path class="st2" d="M196.1,251.4c-1.7,0.5-3.4,0.6-5.1,0.5c-39,0.1-78.1,0-117.1,0c-14,0-27.9,0-41.9,0c-2.5-0.1-5.1,0.3-7.5-0.7
		c4.2-0.6,8.4,0,12.5-0.3c4.5-0.4,9-0.2,13.5-0.3c35.3-0.1,70.5,0,105.8-0.1c12.3,0,24.5,0.1,36.8,0.1
		C194.1,250.6,195.1,251,196.1,251.4z"/>
	<path class="st2" d="M362.8,235.9c-2.5,0.3-5.1,0.2-7.6,0.2c-16.6,0-33.2,0-49.8,0c-4.7-0.5-9.4-0.3-14.1-0.3c-3.8,0-7.6,0-11.3,0
		c-2.4,0-4.8-0.7-7.2-0.8c-4.7-0.2-9.4-0.1-14.1-0.2c-2.9-0.1-5.8,0.2-8.6-0.4c3.2-0.1,6.5-0.3,9.7-0.5c4.6-0.5,9.2-0.1,13.7-0.3
		c4.6-0.2,9.2-0.7,13.8-0.6c3.8-0.1,7.5,0.1,11.3-0.2c3.2-0.4,6.4-0.2,9.6-0.2c28.3,0,56.6,0,84.8,0c5.7,0.1,11.5-0.3,17.2,0.3
		c2.4,0.1,4.9-0.1,7.3,0.2c3.5,0.4,7,0.1,10.5,0.2c1.9,0,3.9,0.3,5.8,0.3c2.9,0,5.7,0,8.6,0c3.2,0.1,6.4-0.1,9.6,0.2
		c3.8,0.3,7.6,0.5,11.5,0.5c-2.6,1-5.3,0.5-8,0.6c-5.4,0.2-10.8,0.9-16.2,0.7c-23,0-46,0-69,0C367.8,235.8,365.3,235.7,362.8,235.9z
		"/>
	<path class="st2" d="M359.3,217.8c-6.4,0.9-12.9,0.1-19.3,0.7c-6.4,0.1-12.8,0-19.2,0c-2.3,0.1-4.6-0.3-6.9-0.4
		c-18.1,0-36.2,0-54.3,0c-6.2,0-12.3,0.1-18.5-0.1c-3.8-0.5-7.6-0.2-11.4-0.3c3.5-0.7,7.1,0,10.7-0.4c2.8-0.3,5.5-0.2,8.3-0.2
		c25.8,0,51.5,0,77.3,0c3.6,0.1,7.1-0.5,10.6-0.3C344.2,216.7,351.8,217.3,359.3,217.8z"/>
	<path class="st2" d="M313.1,209.4c-3.1,0.8-6.3,0.4-9.4,0.6c-44,0.1-87.9,0.1-131.9,0c-3.1-0.1-6.2,0.2-9.3-0.5
		c5.2-1.4,10.6-0.5,15.9-1c3.2-0.3,6.4-0.1,9.5-0.2c2.4,0,4.8-0.2,7.2,0.2c1.1,0.1,2.1,0.3,3.2,0.3c6.2-0.4,12.3-0.1,18.5-0.2
		c18.3,0,36.7,0.1,55,0c8.1,0.1,16.2-0.1,24.4,0.1c3.2,0.4,6.4-0.2,9.6,0.1C308.2,209,310.6,208.9,313.1,209.4z"/>
	<path class="st2" d="M80.6,201.7c-6.6-0.8-13.2,0.5-19.8,0.5c-4-0.1-8,0.2-12-0.3c-2.9-0.3-5.8,0.1-8.7-0.2
		c-4.6-0.5-9.3-0.1-13.9-0.3c-1.3-0.1-2.8,0.2-4-0.3c1.6-0.2,3.2,0.1,4.7,0c1.6-0.2,3.2-0.3,4.8-0.3c2.8,0,5.5-0.5,8.2-0.4
		c3.3,0.1,6.6-0.5,10-0.3c3.8,0.2,7.5-0.5,11.3-0.4c5.2-0.1,10.3,1.2,15.5,1c4.7-0.5,9.4-0.3,14.1,0c3.7,0.2,7.4-0.3,11,0.4
		c-4.2,0.7-8.5,0.2-12.7,0.4C86.2,201.3,83.4,201.8,80.6,201.7z"/>
	<path class="st2" d="M460.3,201.1c-1.2,0.3-2.3,0.4-3.5,0.4c-8.8,0.3-17.6,0.2-26.5,0.2c-27,0-54,0.1-81.1,0
		c-6.8-0.1-13.5-0.3-20.3-0.3c-2.6,0-5.3,0-7.9-0.4c1.5-0.3,3-0.7,4.5-0.7c5.5-0.1,10.9,0.2,16.4-0.2c2.2-0.1,4.4,0,6.6-0.2
		c3.2-0.3,6.4-0.2,9.6-0.2c13.2,0,26.3,0,39.5,0c4.9,0.4,9.8,0.3,14.8,0.2c4.6-0.4,9.2-0.2,13.7-0.3c3.1,0,6.2-0.1,9.4,0.1
		c4.7,0.4,9.3,0,14,0.4C453.2,200.6,456.9,200,460.3,201.1z"/>
	<path class="st2" d="M277.2,192.8c-5.4,0.6-10.8,0.3-16.2,0.4c-38.6,0-77.2,0-115.8,0c-3-0.1-5.9-0.6-8.9-0.3c-1.1,0-2.3,0.3-3.4,0
		c2.2-0.5,4.5-0.3,6.8-0.3c2.4,0,4.8-0.4,7.2-0.4c39.4,0,78.8-0.1,118.2,0C269.2,192.5,273.2,192.4,277.2,192.8z"/>
	<path class="st2" d="M424.4,184.4c-2.1,0.6-4.3,0.5-6.4,0.5c-16.9,0.1-33.9,0.1-50.8,0.1c-25.1-0.1-50.1,0.1-75.2,0
		c-2.4,0-4.9,0.2-7.3-0.5c1-0.5,2.1-0.9,3.2-0.9c44,0,87.9,0,131.9,0C421.3,183.5,423,183.6,424.4,184.4z"/>
	<path class="st2" d="M109,184.3c-1.3,0.4-2.6,0.6-3.9,0.6c-16.8,0.2-33.7,0-50.5,0c-5.2,0-10.3,0-15.5,0c-2.5,0-5.1,0.2-7.5-0.5
		c1.2-0.6,2.4-0.9,3.8-0.9c22.6,0.1,45.1-0.1,67.7,0.1C105.1,183.6,107.1,183.7,109,184.3z"/>
</g>
<g id="TOP_x5F_ORANGE">
	<g>
		<path class="st3" d="M367.2,335.5h6.5c0.2,0,0.2,0.1,0.1,0.2l-0.5,0.4c-0.1,0.1-0.4,0.2-0.5,0.2h-2.4c-0.2,0-0.4,0.1-0.5,0.2l-4,4
			c-0.1,0.1-0.4,0.2-0.5,0.2h-9.1c-0.2,0-0.4,0.1-0.6,0.2l-1.3,1c-0.1,0.1-0.4,0.2-0.6,0.2h-16.3c-0.2,0-0.4-0.1-0.6-0.2l-1.2-0.9
			c-0.1-0.1-0.4-0.2-0.6-0.2h-2.9c-0.2,0-0.4-0.1-0.5-0.2l-3.3-3.3c-0.1-0.1-0.4-0.2-0.5-0.2h-2c-0.2,0-0.4-0.1-0.5-0.2l-0.8-1
			c-0.1-0.1-0.1-0.2,0.1-0.2l5.8,0c0.2,0,0.4,0.1,0.5,0.2l1.9,1.9c0.1,0.1,0.4,0.2,0.5,0.2h30.6c0.2,0,0.4-0.1,0.5-0.2l1.9-1.9
			C366.8,335.6,367,335.5,367.2,335.5z"/>
	</g>
	<path class="st3" d="M292,334.5c0,0,1.1,0,1.6,0.3c0.4,0.3,0.9,0.7,0.9,0.7c0.1,0.1,0.2,0.2,0.3,0.3l6.9,6.9
		c0.1,0.1,0.4,0.2,0.5,0.2h1.7c0.2,0,0.4-0.1,0.5-0.2l0.9-0.8c0.1-0.1,0.4-0.2,0.5-0.2h12.4c0.2,0,0.4,0.1,0.6,0.2l1,0.8
		c0.1,0.1,0.4,0.2,0.6,0.2h3.9c0.2,0,0.5,0.1,0.6,0.2l0.8,0.8c0.1,0.1,0.1,0.2-0.1,0.2h-4c-0.2,0-0.2,0.1-0.1,0.1
		c0.1,0.1,0.2,0.1,0.4,0.1h3.8c0.2,0,0.3,0,0.3,0c0,0-0.2,0-0.4,0H322c-0.2,0-0.2,0.1-0.1,0.2l0.2,0.1c0.2,0.1,0.3,0.1,0.5,0.1h5.4
		c0.2,0,0.2,0.1,0.1,0.2c-0.1,0.1-0.3,0.2-0.5,0.2h-7.3c-0.2,0-0.4-0.1-0.6-0.2l-0.9-0.7c-0.1-0.1-0.4-0.2-0.6-0.2h-12.6
		c-0.2,0-0.4,0.1-0.5,0.2l-0.8,0.7c-0.1,0.1-0.4,0.2-0.5,0.2h-2.6c-0.2,0-0.4-0.1-0.5-0.2l-8.2-8.2c-0.1-0.1-0.2-0.2-0.2-0.2
		s-0.1,0-0.3,0h-8.6c-0.2,0-0.4,0.1-0.5,0.2l-1.2,1c-0.1,0.1-0.4,0.2-0.5,0.2h-11c-0.2,0-0.4-0.1-0.6-0.2l-1.3-1
		c-0.1-0.1-0.4-0.2-0.6-0.2h-2c-0.2,0-0.5-0.1-0.7-0.3c0,0-0.6-0.5-0.6-0.7c0-0.2,0.6-0.7,0.6-0.7c0.2-0.2,0.5-0.3,0.7-0.3H292z"/>
	<path class="st3" d="M282.9,346.9l1.7,1.7c0.2,0.2,0.2,0.6-0.3,0.6h-25.5c-0.5,0-0.4-0.4-0.3-0.6l1.6-1.6c0.4-0.3,0.5-0.5,0.7-0.5
		h6.1c0.2,0,0.5-0.1,0.6-0.2l1-1c0.1-0.1,0.3-0.2,0.5-0.2h10.9c0.2,0,0.4,0.1,0.6,0.2l1,1c0.1,0.1,0.4,0.2,0.6,0.2h0.3
		C282.5,346.6,282.6,346.6,282.9,346.9z"/>
	<path class="st3" d="M439.1,344.2l-8.5-8.5c-0.1-0.1-0.4-0.2-0.5-0.2h-6c-0.2,0-0.4,0.1-0.5,0.2l-2,1.8c-0.1,0.1-0.4,0.2-0.5,0.2
		h-26.4c-0.2,0-0.4-0.1-0.6-0.2l-2.2-1.8c-0.1-0.1-0.4-0.2-0.6-0.2h-15.5c-0.2,0-0.4,0-0.6,0.2l-0.3,0.3c-0.2,0.2-0.1,0.3,0.1,0.3
		h11.7c0.2,0,0.4,0,0.6,0.1l1,0.7c0.1,0.1,0.1,0.2-0.1,0.2H380c-0.2,0-0.3,0-0.4,0.1c0,0,0.1,0.1,0.2,0.1h8.3c0.2,0,0.4,0.1,0.6,0.2
		l0.1,0.1c0.1,0.1,0.1,0.2-0.1,0.2h-8.7c-0.2,0-0.2,0.1-0.1,0.2l2,1.9c0.1,0.1,0.4,0.2,0.5,0.2h8.6c0.2,0,0.4,0.1,0.6,0.2l2.6,2.1
		c0.1,0.1,0.4,0.2,0.6,0.2h26c0.2,0,0.4-0.1,0.5-0.2l2.3-2.1c0.1-0.1,0.4-0.2,0.5-0.2h4c0.2,0,0.4,0.1,0.5,0.2l5.8,5.8
		c0.1,0.1,0.2,0.4,0.2,0.5c0,0,0,2.5,0.1,2.6h64.9l-0.3,1.4c0.2,0,0.3-3.1,0.3-3.1c0-0.2-2.5-2.8-2.5-2.8c-0.1-0.1-0.4-0.2-0.5-0.2
		h-7.4c-0.2,0-0.4-0.1-0.6-0.2l-3.1-2.5c-0.1-0.1-0.4-0.2-0.6-0.2h-27.8c-0.2,0-0.4,0.1-0.5,0.2l-2.9,2.5c-0.1,0.1-0.4,0.2-0.5,0.2
		c0,0-13.3,0-13.6,0C439.4,344.5,439.1,344.2,439.1,344.2z M470.6,345.4h2.5c0.2,0,0.2,0.1,0.1,0.2l-3,2.7c-0.1,0.1-0.4,0.2-0.5,0.2
		h-2.5c-0.2,0-0.2-0.1-0.1-0.2l3-2.7C470.2,345.5,470.4,345.4,470.6,345.4z M466.9,345.4h2.5c0.2,0,0.2,0.1,0.1,0.2l-3,2.7
		c-0.1,0.1-0.4,0.2-0.5,0.2h-2.5c-0.2,0-0.2-0.1-0.1-0.2l3-2.7C466.5,345.5,466.7,345.4,466.9,345.4z M463.1,345.4h2.5
		c0.2,0,0.2,0.1,0.1,0.2l-3,2.7c-0.1,0.1-0.4,0.2-0.5,0.2h-2.5c-0.2,0-0.2-0.1-0.1-0.2l3-2.7C462.7,345.5,463,345.4,463.1,345.4z
		 M459.5,345.4h2.3c0.2,0,0.2,0.1,0.1,0.2l-2.8,2.5c-0.1,0.1-0.4,0.2-0.5,0.2h-2.3c-0.2,0-0.2-0.1-0.1-0.2l2.8-2.5
		C459.1,345.5,459.4,345.4,459.5,345.4z M455.9,345.4h2.3c0.2,0,0.2,0.1,0.1,0.2l-2.8,2.5c-0.1,0.1-0.4,0.2-0.5,0.2h-2.3
		c-0.2,0-0.2-0.1-0.1-0.2l2.8-2.5C455.5,345.5,455.7,345.4,455.9,345.4z M448.7,348.2l2.8-2.5c0.1-0.1,0.4-0.2,0.5-0.2h2.3
		c0.2,0,0.2,0.1,0.1,0.2l-2.8,2.5c-0.1,0.1-0.4,0.2-0.5,0.2h-2.3C448.6,348.4,448.6,348.3,448.7,348.2z"/>
	<path class="st3" d="M366.4,349.3l16.2,0c0.2,0,0.2-0.1,0.1-0.2l-5.8-5.8c-0.1-0.1-0.4-0.2-0.5-0.2h-3.8c-0.2,0-0.4,0.1-0.5,0.2
		l-5.8,5.8C366.2,349.2,366.2,349.3,366.4,349.3z M375.6,344.9c0-0.2,0.1-0.3,0.3-0.3h0.3c0.2,0,0.3,0.1,0.3,0.3v0.3
		c0,0.2-0.1,0.3-0.3,0.3h-0.3c-0.2,0-0.3-0.1-0.3-0.3V344.9z M374,344.9c0-0.2,0.1-0.3,0.3-0.3h0.3c0.2,0,0.3,0.1,0.3,0.3v0.3
		c0,0.2-0.1,0.3-0.3,0.3h-0.3c-0.2,0-0.3-0.1-0.3-0.3V344.9z M372.4,344.9c0-0.2,0.1-0.3,0.3-0.3h0.3c0.2,0,0.3,0.1,0.3,0.3v0.3
		c0,0.2-0.1,0.3-0.3,0.3h-0.3c-0.2,0-0.3-0.1-0.3-0.3V344.9z"/>
	<g>
		<path class="st3" d="M132.3,335.5h-6.5c-0.2,0-0.2,0.1-0.1,0.2l0.5,0.4c0.1,0.1,0.4,0.2,0.5,0.2h2.4c0.2,0,0.4,0.1,0.5,0.2l4,4
			c0.1,0.1,0.4,0.2,0.5,0.2h9.1c0.2,0,0.4,0.1,0.6,0.2l1.3,1c0.1,0.1,0.4,0.2,0.6,0.2h16.3c0.2,0,0.4-0.1,0.6-0.2l1.2-0.9
			c0.1-0.1,0.4-0.2,0.6-0.2h2.9c0.2,0,0.4-0.1,0.5-0.2l3.3-3.3c0.1-0.1,0.4-0.2,0.5-0.2h2c0.2,0,0.4-0.1,0.5-0.2l0.8-1
			c0.1-0.1,0.1-0.2-0.1-0.2l-5.8,0c-0.2,0-0.4,0.1-0.5,0.2l-1.9,1.9c-0.1,0.1-0.4,0.2-0.5,0.2h-30.6c-0.2,0-0.4-0.1-0.5-0.2
			l-1.9-1.9C132.7,335.6,132.5,335.5,132.3,335.5z"/>
	</g>
	<path class="st3" d="M207.5,334.5c0,0-1.1,0-1.6,0.3c-0.4,0.3-0.9,0.7-0.9,0.7c-0.1,0.1-0.2,0.2-0.3,0.3l-6.9,6.9
		c-0.1,0.1-0.4,0.2-0.5,0.2h-1.7c-0.2,0-0.4-0.1-0.5-0.2l-0.9-0.8c-0.1-0.1-0.4-0.2-0.5-0.2h-12.4c-0.2,0-0.4,0.1-0.6,0.2l-1,0.8
		c-0.1,0.1-0.4,0.2-0.6,0.2h-3.9c-0.2,0-0.5,0.1-0.6,0.2l-0.8,0.8c-0.1,0.1-0.1,0.2,0.1,0.2h4c0.2,0,0.2,0.1,0.1,0.1
		c-0.1,0.1-0.2,0.1-0.4,0.1h-3.8c-0.2,0-0.3,0-0.3,0c0,0,0.2,0,0.4,0h3.6c0.2,0,0.2,0.1,0.1,0.2l-0.2,0.1c-0.2,0.1-0.3,0.1-0.5,0.1
		h-5.4c-0.2,0-0.2,0.1-0.1,0.2c0.1,0.1,0.3,0.2,0.5,0.2h7.3c0.2,0,0.4-0.1,0.6-0.2l0.9-0.7c0.1-0.1,0.4-0.2,0.6-0.2h12.6
		c0.2,0,0.4,0.1,0.5,0.2l0.8,0.7c0.1,0.1,0.4,0.2,0.5,0.2h2.6c0.2,0,0.4-0.1,0.5-0.2l8.2-8.2c0.1-0.1,0.2-0.2,0.2-0.2s0.1,0,0.3,0
		h8.6c0.2,0,0.4,0.1,0.5,0.2l1.2,1c0.1,0.1,0.4,0.2,0.5,0.2h11c0.2,0,0.4-0.1,0.6-0.2l1.3-1c0.1-0.1,0.4-0.2,0.6-0.2h2
		c0.2,0,0.5-0.1,0.7-0.3c0,0,0.6-0.5,0.6-0.7c0-0.2-0.6-0.7-0.6-0.7c-0.2-0.2-0.5-0.3-0.7-0.3H207.5z"/>
	<path class="st3" d="M216.1,346.9l-1.7,1.7c-0.2,0.2-0.2,0.6,0.3,0.6h25.5c0.5,0,0.4-0.4,0.3-0.6l-1.6-1.6
		c-0.4-0.3-0.5-0.5-0.7-0.5h-6.1c-0.2,0-0.5-0.1-0.6-0.2l-1-1c-0.1-0.1-0.3-0.2-0.5-0.2h-10.9c-0.2,0-0.4,0.1-0.6,0.2l-1,1
		c-0.1,0.1-0.4,0.2-0.6,0.2h-0.3C216.5,346.6,216.4,346.6,216.1,346.9z"/>
	<path class="st3" d="M59.8,344.5H46.2c-0.2,0-0.4-0.1-0.5-0.2l-2.9-2.5c-0.1-0.1-0.4-0.2-0.5-0.2H14.5c-0.2,0-0.4,0.1-0.6,0.2
		l-3.1,2.5c-0.1,0.1-0.4,0.2-0.6,0.2H2.8c-0.2,0-0.4,0.1-0.5,0.2l-2.5,2.3c0,0.9,0,1.2,0,2.3c0,0,65.1,0,65.1-0.2v-2.4
		c0-0.2,0.1-0.4,0.2-0.5l5.8-5.8c0.1-0.1,0.4-0.2,0.5-0.2h4c0.2,0,0.4,0.1,0.5,0.2l2.3,2.1c0.1,0.1,0.4,0.2,0.5,0.2h26
		c0.2,0,0.4-0.1,0.6-0.2l2.6-2.1c0.1-0.1,0.4-0.2,0.6-0.2h8.6c0.2,0,0.4-0.1,0.5-0.2l2-1.9c0.1-0.1,0.1-0.2-0.1-0.2h-8.7
		c-0.2,0-0.2-0.1-0.1-0.2l0.1-0.1c0.1-0.1,0.4-0.2,0.6-0.2h8.3c0.2,0,0.3,0,0.2-0.1c0,0-0.2-0.1-0.4-0.1h-8.1
		c-0.2,0-0.2-0.1-0.1-0.2l0.7-0.5c0.2-0.2,0.6-0.3,0.9-0.3h11.7c0.2,0,0.2-0.2,0.1-0.3l-0.3-0.3c-0.2-0.2-0.4-0.2-0.6-0.2h-15.5
		c-0.2,0-0.4,0.1-0.5,0.2l-2.3,1.8c-0.1,0.1-0.4,0.2-0.6,0.2H78.5c-0.2,0-0.4-0.1-0.5-0.2l-2-1.8c-0.1-0.1-0.4-0.2-0.5-0.2h-6
		c-0.2,0-0.4,0.1-0.5,0.2l-8.5,8.5C60.3,344.2,60.1,344.5,59.8,344.5z M29.4,345.6l3,2.7c0.1,0.1,0.1,0.2-0.1,0.2h-2.5
		c-0.2,0-0.4-0.1-0.5-0.2l-3-2.7c-0.1-0.1-0.1-0.2,0.1-0.2h2.5C29,345.4,29.3,345.5,29.4,345.6z M33.1,345.6l3,2.7
		c0.1,0.1,0.1,0.2-0.1,0.2h-2.5c-0.2,0-0.4-0.1-0.5-0.2l-3-2.7c-0.1-0.1-0.1-0.2,0.1-0.2h2.5C32.8,345.4,33,345.5,33.1,345.6z
		 M36.9,345.6l3,2.7c0.1,0.1,0.1,0.2-0.1,0.2h-2.5c-0.2,0-0.4-0.1-0.5-0.2l-3-2.7c-0.1-0.1-0.1-0.2,0.1-0.2h2.5
		C36.5,345.4,36.7,345.5,36.9,345.6z M40.5,345.6l2.8,2.5c0.1,0.1,0.1,0.2-0.1,0.2h-2.3c-0.2,0-0.4-0.1-0.5-0.2l-2.8-2.5
		c-0.1-0.1-0.1-0.2,0.1-0.2h2.3C40.1,345.4,40.3,345.5,40.5,345.6z M44.1,345.6l2.8,2.5c0.1,0.1,0.1,0.2-0.1,0.2h-2.3
		c-0.2,0-0.4-0.1-0.5-0.2l-2.8-2.5c-0.1-0.1-0.1-0.2,0.1-0.2h2.3C43.8,345.4,44,345.5,44.1,345.6z M50.7,348.4h-2.3
		c-0.2,0-0.4-0.1-0.5-0.2l-2.8-2.5c-0.1-0.1-0.1-0.2,0.1-0.2h2.3c0.2,0,0.4,0.1,0.5,0.2l2.8,2.5C50.9,348.3,50.9,348.4,50.7,348.4z"
		/>
	<path class="st3" d="M133.2,349.1l-5.8-5.8c-0.1-0.1-0.4-0.2-0.5-0.2h-3.8c-0.2,0-0.4,0.1-0.5,0.2l-5.8,5.8
		c-0.1,0.1-0.1,0.2,0.1,0.2l16.3,0C133.3,349.3,133.3,349.2,133.2,349.1z M123.8,345.2c0,0.2-0.1,0.3-0.3,0.3h-0.3
		c-0.2,0-0.3-0.1-0.3-0.3v-0.3c0-0.2,0.1-0.3,0.3-0.3h0.3c0.2,0,0.3,0.1,0.3,0.3V345.2z M125.4,345.2c0,0.2-0.1,0.3-0.3,0.3h-0.3
		c-0.2,0-0.3-0.1-0.3-0.3v-0.3c0-0.2,0.1-0.3,0.3-0.3h0.3c0.2,0,0.3,0.1,0.3,0.3V345.2z M127,345.2c0,0.2-0.1,0.3-0.3,0.3h-0.3
		c-0.2,0-0.3-0.1-0.3-0.3v-0.3c0-0.2,0.1-0.3,0.3-0.3h0.3c0.2,0,0.3,0.1,0.3,0.3V345.2z"/>
</g>
<g id="TOP_HEXAGON_KNOCK_OUT">
	<g>
		<path class="st2" d="M248.9,337.2C249,337.2,249,337.2,248.9,337.2c0.1,0.1,0,0.2,0,0.2l-2,0l-1.5,2.4l-1.5,2.4l1.5,2.4l1.5,2.4
			l2.1,0c0,0,0.1,0,0.1,0.1c0,0,0,0.1-0.1,0.1l-2.2,0l-1.5-2.5l-1.5-2.5l1.6-2.5l1.5-2.4L248.9,337.2z"/>
		<path class="st2" d="M254.4,339.6l1.6,2.4l-1.5,2.5L253,347l-2.3,0c0,0,0,0-0.1,0c0,0,0,0,0-0.1c0,0,0-0.1,0.1-0.1l2.2,0l1.5-2.4
			l1.5-2.4l-1.5-2.4l-1.5-2.4l-2.1,0c0,0-0.1,0-0.1-0.1c0,0,0-0.1,0.1-0.1l2.2,0L254.4,339.6z"/>
		<path class="st2" d="M244.7,342c0,0,0.6,1,1.3,2.1c0.6,1,1.3,2.1,1.3,2.1s1.3,0,2.6,0c1.3,0,2.6,0,2.6,0s0.6-1,1.3-2.1
			c0.6-1,1.3-2.1,1.3-2.1s-0.7-1-1.3-2.1c-0.7-1-1.3-2.1-1.3-2.1s-1.3,0-2.6,0c-1.3,0-2.6,0-2.6,0s-0.7,1-1.3,2.1
			C245.4,341,244.7,342,244.7,342z M254.4,342.1l-2.2,3.6c0,0-1.1,0-2.2,0c-1.1,0-2.2,0-2.2,0l-2.2-3.6l2.2-3.5c0,0,1.1,0,2.2,0
			c1.1,0,2.2,0,2.2,0L254.4,342.1z"/>
	</g>
	<g>
		<polygon class="st2" points="259.4,339.8 260.9,342 259.6,344.2 259.6,344.2 261.1,344.1 262.4,341.9 261,339.8 259.4,339.8 		"/>
	</g>
	<g>
		<polygon class="st2" points="240,344.2 238.7,341.9 240.1,339.8 240.1,339.8 238.6,339.8 237.2,341.9 238.5,344.1 240,344.2 		"/>
	</g>
	<g>
		<path class="st2" d="M245.7,337.2c0,0-0.8,1.2-1.6,2.4c-0.8,1.2-1.6,2.4-1.6,2.4s0.7,1.2,1.5,2.5c0.8,1.2,1.5,2.5,1.5,2.5l0,0
			l-2.7,0c0,0-0.2-0.3-0.5-0.8c-0.3-0.5-0.7-1.1-1-1.7c-0.7-1.3-1.5-2.5-1.5-2.5s0.8-1.2,1.6-2.4c0.4-0.6,0.8-1.2,1.1-1.6
			c0.3-0.5,0.5-0.8,0.5-0.8L245.7,337.2L245.7,337.2z"/>
	</g>
	<g>
		<path class="st2" d="M254,337.2c0,0,0.8,1.2,1.5,2.4c0.8,1.2,1.6,2.4,1.6,2.4s-0.7,1.2-1.5,2.5c-0.8,1.2-1.5,2.5-1.5,2.5l0,0
			l2.7,0c0,0,0.2-0.3,0.5-0.8c0.3-0.5,0.7-1.1,1-1.7c0.7-1.3,1.5-2.5,1.5-2.5s-0.8-1.2-1.6-2.4c-0.4-0.6-0.8-1.2-1.1-1.7
			c-0.3-0.5-0.5-0.8-0.5-0.8L254,337.2L254,337.2z"/>
	</g>
</g>
<g id="TOP_x5F_ORANGE_1_">
	<g>
		<path class="st3" d="M367.2,163.2h6.5c0.2,0,0.2-0.1,0.1-0.2l-0.5-0.4c-0.1-0.1-0.4-0.2-0.5-0.2h-2.4c-0.2,0-0.4-0.1-0.5-0.2l-4-4
			c-0.1-0.1-0.4-0.2-0.5-0.2h-9.1c-0.2,0-0.4-0.1-0.6-0.2l-1.3-1c-0.1-0.1-0.4-0.2-0.6-0.2h-16.3c-0.2,0-0.4,0.1-0.6,0.2l-1.2,0.9
			c-0.1,0.1-0.4,0.2-0.6,0.2h-2.9c-0.2,0-0.4,0.1-0.5,0.2l-3.3,3.3c-0.1,0.1-0.4,0.2-0.5,0.2h-2c-0.2,0-0.4,0.1-0.5,0.2l-0.8,1
			c-0.1,0.1-0.1,0.2,0.1,0.2l5.8,0c0.2,0,0.4-0.1,0.5-0.2l1.9-1.9c0.1-0.1,0.4-0.2,0.5-0.2h30.6c0.2,0,0.4,0.1,0.5,0.2l1.9,1.9
			C366.8,163.1,367,163.2,367.2,163.2z"/>
	</g>
	<path class="st3" d="M292,164.2c0,0,1.1,0,1.6-0.3c0.4-0.3,0.9-0.7,0.9-0.7c0.1-0.1,0.2-0.2,0.3-0.3l6.9-6.9
		c0.1-0.1,0.4-0.2,0.5-0.2h1.7c0.2,0,0.4,0.1,0.5,0.2l0.9,0.8c0.1,0.1,0.4,0.2,0.5,0.2h12.4c0.2,0,0.4-0.1,0.6-0.2l1-0.8
		c0.1-0.1,0.4-0.2,0.6-0.2h3.9c0.2,0,0.5-0.1,0.6-0.2l0.8-0.8c0.1-0.1,0.1-0.2-0.1-0.2h-4c-0.2,0-0.2-0.1-0.1-0.1
		c0.1-0.1,0.2-0.1,0.4-0.1h3.8c0.2,0,0.3,0,0.3,0c0,0-0.2,0-0.4,0H322c-0.2,0-0.2-0.1-0.1-0.2l0.2-0.1c0.2-0.1,0.3-0.1,0.5-0.1h5.4
		c0.2,0,0.2-0.1,0.1-0.2c-0.1-0.1-0.3-0.2-0.5-0.2h-7.3c-0.2,0-0.4,0.1-0.6,0.2l-0.9,0.7c-0.1,0.1-0.4,0.2-0.6,0.2h-12.6
		c-0.2,0-0.4-0.1-0.5-0.2l-0.8-0.7c-0.1-0.1-0.4-0.2-0.5-0.2h-2.6c-0.2,0-0.4,0.1-0.5,0.2l-8.2,8.2c-0.1,0.1-0.2,0.2-0.2,0.2
		c0,0-0.1,0-0.3,0h-8.6c-0.2,0-0.4-0.1-0.5-0.2l-1.2-1c-0.1-0.1-0.4-0.2-0.5-0.2h-11c-0.2,0-0.4,0.1-0.6,0.2l-1.3,1
		c-0.1,0.1-0.4,0.2-0.6,0.2h-2c-0.2,0-0.5,0.1-0.7,0.3c0,0-0.6,0.5-0.6,0.7c0,0.2,0.6,0.7,0.6,0.7c0.2,0.2,0.5,0.3,0.7,0.3H292z"/>
	<path class="st3" d="M282.9,151.8l1.7-1.7c0.2-0.2,0.2-0.6-0.3-0.6h-25.5c-0.5,0-0.4,0.4-0.3,0.6l1.6,1.6c0.4,0.3,0.5,0.5,0.7,0.5
		h6.1c0.2,0,0.5,0.1,0.6,0.2l1,1c0.1,0.1,0.3,0.2,0.5,0.2h10.9c0.2,0,0.4-0.1,0.6-0.2l1-1c0.1-0.1,0.4-0.2,0.6-0.2h0.3
		C282.5,152.1,282.6,152,282.9,151.8z"/>
	<path class="st3" d="M439.7,154.2c0.3,0,13.6,0,13.6,0c0.2,0,0.4,0.1,0.5,0.2l2.9,2.5c0.1,0.1,0.4,0.2,0.5,0.2H485
		c0.2,0,0.4-0.1,0.6-0.2l3.1-2.5c0.1-0.1,0.4-0.2,0.6-0.2h7.4c0.2,0,0.4-0.1,0.5-0.2c0,0,2.5-2.7,2.5-2.8l0-1.8h-64.9
		c-0.1,0.1-0.1,2.6-0.1,2.6c0,0.2-0.1,0.4-0.2,0.5l-5.8,5.8c-0.1,0.1-0.4,0.2-0.5,0.2h-4c-0.2,0-0.4-0.1-0.5-0.2l-2.3-2.1
		c-0.1-0.1-0.4-0.2-0.5-0.2h-26c-0.2,0-0.4,0.1-0.6,0.2l-2.6,2.1c-0.1,0.1-0.4,0.2-0.6,0.2h-8.6c-0.2,0-0.4,0.1-0.5,0.2l-2,1.9
		c-0.1,0.1-0.1,0.2,0.1,0.2h8.7c0.2,0,0.2,0.1,0.1,0.2l-0.1,0.1c-0.1,0.1-0.4,0.2-0.6,0.2h-8.3c-0.2,0-0.3,0-0.2,0.1
		c0,0,0.2,0.1,0.4,0.1h8.1c0.2,0,0.2,0.1,0.1,0.2l-1,0.7c-0.1,0.1-0.4,0.1-0.6,0.1H375c-0.2,0-0.2,0.2-0.1,0.3l0.3,0.3
		c0.2,0.2,0.4,0.2,0.6,0.2h15.5c0.2,0,0.4-0.1,0.6-0.2l2.2-1.8c0.1-0.1,0.4-0.2,0.6-0.2H421c0.2,0,0.4,0.1,0.5,0.2l2,1.8
		c0.1,0.1,0.4,0.2,0.5,0.2h6c0.2,0,0.4-0.1,0.5-0.2l8.5-8.5C439.1,154.4,439.4,154.2,439.7,154.2z M470.1,153l-3-2.7
		c-0.1-0.1-0.1-0.2,0.1-0.2h2.5c0.2,0,0.4,0.1,0.5,0.2l3,2.7c0.1,0.1,0.1,0.2-0.1,0.2h-2.5C470.4,153.2,470.2,153.2,470.1,153z
		 M466.3,153l-3-2.7c-0.1-0.1-0.1-0.2,0.1-0.2h2.5c0.2,0,0.4,0.1,0.5,0.2l3,2.7c0.1,0.1,0.1,0.2-0.1,0.2h-2.5
		C466.7,153.2,466.5,153.2,466.3,153z M462.6,153l-3-2.7c-0.1-0.1-0.1-0.2,0.1-0.2h2.5c0.2,0,0.4,0.1,0.5,0.2l3,2.7
		c0.1,0.1,0.1,0.2-0.1,0.2h-2.5C463,153.2,462.7,153.2,462.6,153z M459,153l-2.8-2.5c-0.1-0.1-0.1-0.2,0.1-0.2h2.3
		c0.2,0,0.4,0.1,0.5,0.2l2.8,2.5c0.1,0.1,0.1,0.2-0.1,0.2h-2.3C459.4,153.2,459.1,153.1,459,153z M455.3,153l-2.8-2.5
		c-0.1-0.1-0.1-0.2,0.1-0.2h2.3c0.2,0,0.4,0.1,0.5,0.2l2.8,2.5c0.1,0.1,0.1,0.2-0.1,0.2h-2.3C455.7,153.2,455.5,153.1,455.3,153z
		 M448.8,150.3h2.3c0.2,0,0.4,0.1,0.5,0.2l2.8,2.5c0.1,0.1,0.1,0.2-0.1,0.2h-2.3c-0.2,0-0.4-0.1-0.5-0.2l-2.8-2.5
		C448.6,150.4,448.6,150.3,448.8,150.3z"/>
	<path class="st3" d="M366.3,149.6l5.8,5.8c0.1,0.1,0.4,0.2,0.5,0.2h3.8c0.2,0,0.4-0.1,0.5-0.2l5.8-5.8c0.1-0.1,0.1-0.2-0.1-0.2
		l-16.2,0C366.2,149.3,366.2,149.4,366.3,149.6z M375.6,153.4c0-0.2,0.1-0.3,0.3-0.3h0.3c0.2,0,0.3,0.1,0.3,0.3v0.3
		c0,0.2-0.1,0.3-0.3,0.3h-0.3c-0.2,0-0.3-0.1-0.3-0.3V153.4z M374,153.4c0-0.2,0.1-0.3,0.3-0.3h0.3c0.2,0,0.3,0.1,0.3,0.3v0.3
		c0,0.2-0.1,0.3-0.3,0.3h-0.3c-0.2,0-0.3-0.1-0.3-0.3V153.4z M372.4,153.4c0-0.2,0.1-0.3,0.3-0.3h0.3c0.2,0,0.3,0.1,0.3,0.3v0.3
		c0,0.2-0.1,0.3-0.3,0.3h-0.3c-0.2,0-0.3-0.1-0.3-0.3V153.4z"/>
	<g>
		<path class="st3" d="M132.3,163.2h-6.5c-0.2,0-0.2-0.1-0.1-0.2l0.5-0.4c0.1-0.1,0.4-0.2,0.5-0.2h2.4c0.2,0,0.4-0.1,0.5-0.2l4-4
			c0.1-0.1,0.4-0.2,0.5-0.2h9.1c0.2,0,0.4-0.1,0.6-0.2l1.3-1c0.1-0.1,0.4-0.2,0.6-0.2h16.3c0.2,0,0.4,0.1,0.6,0.2l1.2,0.9
			c0.1,0.1,0.4,0.2,0.6,0.2h2.9c0.2,0,0.4,0.1,0.5,0.2l3.3,3.3c0.1,0.1,0.4,0.2,0.5,0.2h2c0.2,0,0.4,0.1,0.5,0.2l0.8,1
			c0.1,0.1,0.1,0.2-0.1,0.2l-5.8,0c-0.2,0-0.4-0.1-0.5-0.2l-1.9-1.9c-0.1-0.1-0.4-0.2-0.5-0.2h-30.6c-0.2,0-0.4,0.1-0.5,0.2
			l-1.9,1.9C132.7,163.1,132.5,163.2,132.3,163.2z"/>
	</g>
	<path class="st3" d="M207.5,164.2c0,0-1.1,0-1.6-0.3c-0.4-0.3-0.9-0.7-0.9-0.7c-0.1-0.1-0.2-0.2-0.3-0.3l-6.9-6.9
		c-0.1-0.1-0.4-0.2-0.5-0.2h-1.7c-0.2,0-0.4,0.1-0.5,0.2l-0.9,0.8c-0.1,0.1-0.4,0.2-0.5,0.2h-12.4c-0.2,0-0.4-0.1-0.6-0.2l-1-0.8
		c-0.1-0.1-0.4-0.2-0.6-0.2h-3.9c-0.2,0-0.5-0.1-0.6-0.2l-0.8-0.8c-0.1-0.1-0.1-0.2,0.1-0.2h4c0.2,0,0.2-0.1,0.1-0.1
		c-0.1-0.1-0.2-0.1-0.4-0.1h-3.8c-0.2,0-0.3,0-0.3,0c0,0,0.2,0,0.4,0h3.6c0.2,0,0.2-0.1,0.1-0.2l-0.2-0.1c-0.2-0.1-0.3-0.1-0.5-0.1
		h-5.4c-0.2,0-0.2-0.1-0.1-0.2c0.1-0.1,0.3-0.2,0.5-0.2h7.3c0.2,0,0.4,0.1,0.6,0.2l0.9,0.7c0.1,0.1,0.4,0.2,0.6,0.2h12.6
		c0.2,0,0.4-0.1,0.5-0.2l0.8-0.7c0.1-0.1,0.4-0.2,0.5-0.2h2.6c0.2,0,0.4,0.1,0.5,0.2l8.2,8.2c0.1,0.1,0.2,0.2,0.2,0.2
		c0,0,0.1,0,0.3,0h8.6c0.2,0,0.4-0.1,0.5-0.2l1.2-1c0.1-0.1,0.4-0.2,0.5-0.2h11c0.2,0,0.4,0.1,0.6,0.2l1.3,1
		c0.1,0.1,0.4,0.2,0.6,0.2h2c0.2,0,0.5,0.1,0.7,0.3c0,0,0.6,0.5,0.6,0.7c0,0.2-0.6,0.7-0.6,0.7c-0.2,0.2-0.5,0.3-0.7,0.3H207.5z"/>
	<path class="st3" d="M216.1,151.8l-1.7-1.7c-0.2-0.2-0.2-0.6,0.3-0.6h25.5c0.5,0,0.4,0.4,0.3,0.6l-1.6,1.6
		c-0.4,0.3-0.5,0.5-0.7,0.5h-6.1c-0.2,0-0.5,0.1-0.6,0.2l-1,1c-0.1,0.1-0.3,0.2-0.5,0.2h-10.9c-0.2,0-0.4-0.1-0.6-0.2l-1-1
		c-0.1-0.1-0.4-0.2-0.6-0.2h-0.3C216.5,152.1,216.4,152,216.1,151.8z"/>
	<path class="st3" d="M60.3,154.4l8.5,8.5c0.1,0.1,0.4,0.2,0.5,0.2h6c0.2,0,0.4-0.1,0.5-0.2l2-1.8c0.1-0.1,0.4-0.2,0.5-0.2h26.4
		c0.2,0,0.4,0.1,0.6,0.2l2.3,1.8c0.1,0.1,0.4,0.2,0.5,0.2h15.5c0.2,0,0.4,0,0.6-0.2l0.3-0.3c0.2-0.2,0.1-0.3-0.1-0.3h-11.7
		c-0.3,0-0.6-0.1-0.9-0.3l-0.7-0.5c-0.1-0.1-0.1-0.2,0.1-0.2h8.1c0.2,0,0.3,0,0.4-0.1c0,0-0.1-0.1-0.2-0.1h-8.3
		c-0.2,0-0.4-0.1-0.6-0.2l-0.1-0.1c-0.1-0.1-0.1-0.2,0.1-0.2h8.7c0.2,0,0.2-0.1,0.1-0.2l-2-1.9c-0.1-0.1-0.4-0.2-0.5-0.2h-8.6
		c-0.2,0-0.4-0.1-0.6-0.2l-2.6-2.1c-0.1-0.1-0.4-0.2-0.6-0.2h-26c-0.2,0-0.4,0.1-0.5,0.2l-2.3,2.1c-0.1,0.1-0.4,0.2-0.5,0.2h-4
		c-0.2,0-0.4-0.1-0.5-0.2l-5.8-5.8c-0.1-0.1-0.2-0.4-0.2-0.5v-2.4c0-0.2-65.1-0.2-65.1-0.2c0.1,1,0,1.4,0,2.3l2.5,2.3
		c0.1,0.1,0.4,0.2,0.5,0.2h7.4c0.2,0,0.4,0.1,0.6,0.2l3.1,2.5c0.1,0.1,0.4,0.2,0.6,0.2h27.8c0.2,0,0.4-0.1,0.5-0.2l2.9-2.5
		c0.1-0.1,0.4-0.2,0.5-0.2h13.6C60.1,154.2,60.3,154.4,60.3,154.4z M28.9,153.2h-2.5c-0.2,0-0.2-0.1-0.1-0.2l3-2.7
		c0.1-0.1,0.4-0.2,0.5-0.2h2.5c0.2,0,0.2,0.1,0.1,0.2l-3,2.7C29.3,153.2,29,153.2,28.9,153.2z M32.6,153.2h-2.5
		c-0.2,0-0.2-0.1-0.1-0.2l3-2.7c0.1-0.1,0.4-0.2,0.5-0.2h2.5c0.2,0,0.2,0.1,0.1,0.2l-3,2.7C33,153.2,32.8,153.2,32.6,153.2z
		 M36.3,153.2h-2.5c-0.2,0-0.2-0.1-0.1-0.2l3-2.7c0.1-0.1,0.4-0.2,0.5-0.2h2.5c0.2,0,0.2,0.1,0.1,0.2l-3,2.7
		C36.7,153.2,36.5,153.2,36.3,153.2z M39.9,153.2h-2.3c-0.2,0-0.2-0.1-0.1-0.2l2.8-2.5c0.1-0.1,0.4-0.2,0.5-0.2h2.3
		c0.2,0,0.2,0.1,0.1,0.2l-2.8,2.5C40.3,153.1,40.1,153.2,39.9,153.2z M43.6,153.2h-2.3c-0.2,0-0.2-0.1-0.1-0.2l2.8-2.5
		c0.1-0.1,0.4-0.2,0.5-0.2h2.3c0.2,0,0.2,0.1,0.1,0.2l-2.8,2.5C44,153.1,43.8,153.2,43.6,153.2z M50.8,150.5l-2.8,2.5
		c-0.1,0.1-0.4,0.2-0.5,0.2H45c-0.2,0-0.2-0.1-0.1-0.2l2.8-2.5c0.1-0.1,0.4-0.2,0.5-0.2h2.3C50.9,150.3,50.9,150.4,50.8,150.5z"/>
	<path class="st3" d="M133.1,149.3l-16.3,0c-0.2,0-0.2,0.1-0.1,0.2l5.8,5.8c0.1,0.1,0.4,0.2,0.5,0.2h3.8c0.2,0,0.4-0.1,0.5-0.2
		l5.8-5.8C133.3,149.4,133.3,149.3,133.1,149.3z M123.8,153.8c0,0.2-0.1,0.3-0.3,0.3h-0.3c-0.2,0-0.3-0.1-0.3-0.3v-0.3
		c0-0.2,0.1-0.3,0.3-0.3h0.3c0.2,0,0.3,0.1,0.3,0.3V153.8z M125.4,153.8c0,0.2-0.1,0.3-0.3,0.3h-0.3c-0.2,0-0.3-0.1-0.3-0.3v-0.3
		c0-0.2,0.1-0.3,0.3-0.3h0.3c0.2,0,0.3,0.1,0.3,0.3V153.8z M127,153.8c0,0.2-0.1,0.3-0.3,0.3h-0.3c-0.2,0-0.3-0.1-0.3-0.3v-0.3
		c0-0.2,0.1-0.3,0.3-0.3h0.3c0.2,0,0.3,0.1,0.3,0.3V153.8z"/>
</g>
<g id="TOP_HEXAGON_KNOCK_OUT_1_">
	<g>
		<path class="st2" d="M248.9,161.6C249,161.6,249,161.5,248.9,161.6c0.1-0.1,0-0.2,0-0.2l-2,0l-1.5-2.4l-1.5-2.4l1.5-2.4l1.5-2.4
			l2.1,0c0,0,0.1,0,0.1-0.1c0,0,0-0.1-0.1-0.1l-2.2,0l-1.5,2.5l-1.5,2.5l1.6,2.5l1.5,2.4L248.9,161.6z"/>
		<path class="st2" d="M254.4,159.1l1.6-2.4l-1.5-2.5l-1.5-2.5l-2.3,0c0,0,0,0-0.1,0c0,0,0,0,0,0.1c0,0,0,0.1,0.1,0.1l2.2,0l1.5,2.4
			l1.5,2.4l-1.5,2.4l-1.5,2.4l-2.1,0c0,0-0.1,0-0.1,0.1c0,0,0,0.1,0.1,0.1l2.2,0L254.4,159.1z"/>
		<path class="st2" d="M246,158.8c0.7,1,1.3,2.1,1.3,2.1s1.3,0,2.6,0c1.3,0,2.6,0,2.6,0s0.7-1,1.3-2.1c0.7-1,1.3-2.1,1.3-2.1
			s-0.6-1-1.3-2.1c-0.6-1-1.3-2.1-1.3-2.1s-1.3,0-2.6,0c-1.3,0-2.6,0-2.6,0s-0.6,1-1.3,2.1c-0.6,1-1.3,2.1-1.3,2.1
			S245.4,157.7,246,158.8z M252.1,160.2c0,0-1.1,0-2.2,0c-1.1,0-2.2,0-2.2,0l-2.2-3.5l2.2-3.6c0,0,1.1,0,2.2,0c1.1,0,2.2,0,2.2,0
			l2.2,3.6L252.1,160.2z"/>
	</g>
	<g>
		<polygon class="st2" points="259.4,158.9 260.9,156.8 259.6,154.6 259.6,154.6 261.1,154.6 262.4,156.8 261,159 259.4,158.9 		"/>
	</g>
	<g>
		<polygon class="st2" points="240,154.6 238.7,156.8 240.1,158.9 240.1,158.9 238.6,159 237.2,156.8 238.5,154.6 240,154.6 		"/>
	</g>
	<g>
		<path class="st2" d="M245.7,161.6c0,0-0.8-1.2-1.6-2.4c-0.8-1.2-1.6-2.4-1.6-2.4s0.7-1.2,1.5-2.5c0.8-1.2,1.5-2.5,1.5-2.5l0,0
			l-2.7,0c0,0-0.2,0.3-0.5,0.8c-0.3,0.5-0.7,1.1-1,1.7c-0.7,1.3-1.5,2.5-1.5,2.5s0.8,1.2,1.6,2.4c0.4,0.6,0.8,1.2,1.1,1.6
			c0.3,0.5,0.5,0.8,0.5,0.8L245.7,161.6L245.7,161.6z"/>
	</g>
	<g>
		<path class="st2" d="M254,161.6c0,0,0.8-1.2,1.5-2.4c0.8-1.2,1.6-2.4,1.6-2.4s-0.7-1.2-1.5-2.5c-0.8-1.2-1.5-2.5-1.5-2.5l0,0
			l2.7,0c0,0,0.2,0.3,0.5,0.8c0.3,0.5,0.7,1.1,1,1.7c0.7,1.3,1.5,2.5,1.5,2.5s-0.8,1.2-1.6,2.4c-0.4,0.6-0.8,1.2-1.1,1.7
			c-0.3,0.5-0.5,0.8-0.5,0.8L254,161.6L254,161.6z"/>
	</g>
</g>
</svg>
